<?xml version="1.0" standalone="no"?>
<!DOCTYPE svg PUBLIC "-//W3C//DTD SVG 1.1//EN" "http://www.w3.org/Graphics/SVG/1.1/DTD/svg11.dtd" >
<svg xmlns="http://www.w3.org/2000/svg">
<metadata>
Generated by SVGconv.
Copyright   : Copyright (C) 1998; Type Market Ltd. Russia, Moscow, 119136, Box 20; phone:(095)1427712
Foundry     : C) ; Type Market Ltd
</metadata>
<defs>
<font id="SansRoundedWeb" horiz-adv-x="583" >
<font-face units-per-em="1000" ascent="1015" descent="300" />
<missing-glyph horiz-adv-x="324" />
<glyph unicode="&#32;" horiz-adv-x="324" />
<glyph unicode="&#33;" horiz-adv-x="290" d="M144 157q17 0 32.5 -7q15.5 -7 27.5 -18.5q12 -11.5 19 -27q7 -15.5 7 -32.5q0 -37 -26 -61q-26 -24 -60 -24q-33 0 -58.5 23q-25.5 23 -25.5 61q0 17 7 32.5q7 15.5 18.5 27.5q11.5 12 26.5 19q15 7 32 7zt0 0zM144 731q77 0 77 -114v-288q0 -115 -77 -115q-78 0 -78 115v288q0 114 78 114z" />
<glyph unicode="&#34;" horiz-adv-x="331" d="M39 655q0 21 13.5 34q13.5 13 33.5 13q23 0 35 -13q12 -13 12 -34v-179q0 -21 -13.5 -34q-13.5 -13 -33.5 -13q-23 0 -35 13q-12 13 -12 34zM245 702q23 0 35 -13q12 -13 12 -34v-179q0 -21 -13.5 -34q-13.5 -13 -33.5 -13q-23 0 -35 13q-12 13 -12 34v179q0 21 13.5 34t33.5 13z" />
<glyph unicode="&#35;" horiz-adv-x="769" d="M501 512l59 168q6 16 11 26.5q5 10.5 12.5 15.5q7.5 5 18.5 7q11 2 29 2q19 0 29.5 -6q10.5 -6 10.5 -23q0 -5 -3 -17.5q-3 -12.5 -6 -20.5l-53 -152h76q29 0 49 -11.5q20 -11.5 20 -37.5q0 -27 -20.5 -38q-20.5 -11 -48.5 -11h-111l-41 -118h92q29 0 49 -11.5q20 -11.5 20 -37.5q0 -27 -20.5 -38q-20.5 -11 -48.5 -11h-127l-54 -152q-6 -17 -11 -27q-5 -10 -12.5 -15q-7.5 -5 -18.5 -7q-11 -2 -29 -2q-19 0 -29.5 6q-10.5 6 -10.5 23q0 5 3 17.5q3 12.5 6 20.5l48 136h-119l-54 -152q-6 -17 -11 -27q-5 -10 -12.5 -15q-7.5 -5 -18.5 -7q-11 -2 -29 -2q-19 0 -29.5 6q-10.5 6 -10.5 23q0 5 3 17.5q3 12.5 6 20.5l47 136h-74q-28 0 -48.5 11q-20.5 11 -20.5 38q0 26 20 37.5q20 11.5 49 11.5h109l42 118h-82q-28 0 -48.5 11q-20.5 11 -20.5 38q0 26 20 37.5q20 11.5 49 11.5h117l59 168q6 16 11 26.5q5 10.5 12.5 15.5q7.5 5 18.5 7q11 2 29 2q19 0 29.5 -6q10.5 -6 10.5 -23q0 -5 -3 -17.5q-3 -12.5 -6 -20.5l-52 -152zM303 296h123l42 118l-122 0z" />
<glyph unicode="&#36;" horiz-adv-x="551" d="M230 -19q-100 10 -152.5 42q-52.5 32 -52.5 72q0 32 21 52.5q21 20.5 59 20.5q16 0 35 -6q19 -6 41 -12.5q22 -6.5 46.5 -12.5q24.5 -6 51.5 -6q34 0 57 20.5q23 20.5 23 52.5q0 21 -8.5 36q-8.5 15 -25 26q-16.5 11 -39.5 19.5q-23 8.5 -52 17.5q-51 15 -89 33q-38 18 -63 41.5q-25 23.5 -37 54.5q-12 31 -12 73q0 41 13.5 78q13.5 37 38.5 66.5q25 29.5 61.5 51q36.5 21.5 83.5 30.5l0 45q0 54 40 54q24 0 32 -13q8 -13 8 -41v-45q85 -7 130 -36q45 -29 45 -70q0 -32 -19 -50.5q-19 -18.5 -54 -18.5q-15 0 -30.5 4q-15.5 4 -31.5 8.5q-16 4.5 -32.5 8.5q-16.5 4 -32.5 4q-38 0 -59 -17.5q-21 -17.5 -21 -43.5q0 -19 9 -31q9 -12 25.5 -20q16.5 -8 41 -15.5q24.5 -7.5 54.5 -17.5q100 -33 148 -84q48 -51 48 -132q0 -46 -16 -87q-16 -41 -45 -73q-29 -32 -69.5 -52.5q-40.5 -20.5 -90.5 -26.5l0 -63q0 -55 -40 -55q-23 0 -31.5 13q-8.5 13 -8.5 42l0 63z" />
<glyph unicode="&#37;" horiz-adv-x="699" d="M163 720q31 0 59 -12.5q28 -12.5 49 -34q21 -21.5 33 -50.5q12 -29 12 -62q0 -33 -12 -62q-12 -29 -33 -50.5q-21 -21.5 -49 -34q-28 -12.5 -59 -12.5q-32 0 -60 12q-28 12 -48.5 33.5q-20.5 21.5 -32.5 50.5q-12 29 -12 63q0 34 12 63q12 29 33 50.5q21 21.5 48.5 33.5q27.5 12 59.5 12zt0 0zM163 618q-21 0 -36 -17q-15 -17 -15 -40q0 -22 15 -39.5q15 -17.5 36 -17.5q21 0 36 17.5q15 17.5 15 39.5q0 23 -15 40q-15 17 -36 17zt0 0zM536 309q31 0 59 -12.5q28 -12.5 49 -34q21 -21.5 33 -50.5q12 -29 12 -62q0 -33 -12 -62q-12 -29 -33 -50.5q-21 -21.5 -49 -34q-28 -12.5 -59 -12.5q-32 0 -60 12q-28 12 -48.5 33.5q-20.5 21.5 -32.5 50.5q-12 29 -12 63q0 34 12 63q12 29 33 50.5q21 21.5 48.5 33.5q27.5 12 59.5 12zt0 0zM536 207q-21 0 -36 -17q-15 -17 -15 -40q0 -22 15 -39.5q15 -17.5 36 -17.5q21 0 36 17.5q15 17.5 15 39.5q0 23 -15 40q-15 17 -36 17zt0 0zM239 40q-33 -57 -70 -57q-24 0 -40.5 16.5q-16.5 16.5 -16.5 41.5q0 24 16 52l330 576q16 27 31.5 41.5q15.5 14.5 38.5 14.5q24 0 40 -15.5q16 -15.5 16 -40.5q0 -14 -4 -26q-4 -12 -12 -27z" />
<glyph unicode="&#38;" horiz-adv-x="721" d="M332 731q47 0 85 -13.5q38 -13.5 65 -37.5q27 -24 41.5 -55.5q14.5 -31.5 14.5 -67.5q0 -57 -30 -101q-30 -44 -91 -81l97 -115q38 46 63.5 71q25.5 25 52.5 25q25 0 43 -19q18 -19 18 -48q0 -29 -22.5 -58.5q-22.5 -29.5 -67.5 -71.5q29 -33 45.5 -56.5q16.5 -23.5 16.5 -49.5q0 -29 -18 -51.5q-18 -22.5 -47 -22.5q-23 0 -47 17.5q-24 17.5 -58 62.5q-43 -39 -99.5 -59.5q-56.5 -20.5 -125.5 -20.5q-52 0 -96 17q-44 17 -75.5 46.5q-31.5 29.5 -49 69.5q-17.5 40 -17.5 87q0 71 40.5 124.5q40.5 53.5 123.5 94.5q-34 36 -51 72q-17 36 -17 74q0 35 14.5 65.5q14.5 30.5 41.5 53q27 22.5 65 35.5q38 13 85 13zt0 0zM279 313q-44 -20 -65.5 -48.5q-21.5 -28.5 -21.5 -61.5q0 -40 25 -67q25 -27 70 -27q61 0 123 54zM330 471q79 33 79 86q0 11 -5.5 22q-5.5 11 -15 19.5q-9.5 8.5 -22 14q-12.5 5.5 -27.5 5.5q-28 0 -46.5 -17.5q-18.5 -17.5 -18.5 -40.5q0 -38 56 -89z" />
<glyph unicode="&#39;" horiz-adv-x="172" d="M86 702q23 0 35 -13q12 -13 12 -34v-179q0 -21 -13.5 -34q-13.5 -13 -33.5 -13q-23 0 -35 13q-12 13 -12 34v179q0 21 13.5 34t33.5 13z" />
<glyph unicode="&#40;" horiz-adv-x="324" d="M202 769q29 0 45.5 -16q16.5 -16 16.5 -46q0 -19 -11.5 -51q-11.5 -32 -25 -79.5q-13.5 -47.5 -25 -110q-11.5 -62.5 -11.5 -141.5q0 -78 11.5 -140.5q11.5 -62.5 25 -110q13.5 -47.5 25 -80q11.5 -32.5 11.5 -51.5q0 -30 -16.5 -46q-16.5 -16 -45.5 -16q-26 0 -46.5 24.5q-20.5 24.5 -36.5 64q-16 39.5 -28 88.5q-12 49 -20 98.5q-8 49.5 -11.5 94q-3.5 44.5 -3.5 74.5q0 37 4 84q4 47 12 96.5q8 49.5 20 96.5q12 47 28.5 84.5q16.5 37.5 36.5 60t45 22.5z" />
<glyph unicode="&#41;" horiz-adv-x="324" d="M122 769q25 0 45 -22.5q20 -22.5 36.5 -60q16.5 -37.5 28.5 -84.5q12 -47 20 -96.5q8 -49.5 12 -96.5q4 -47 4 -84q0 -30 -3.5 -74.5q-3.5 -44.5 -11.5 -94q-8 -49.5 -20 -98.5q-12 -49 -28 -88.5q-16 -39.5 -37 -64q-21 -24.5 -46 -24.5q-29 0 -45.5 16q-16.5 16 -16.5 46q0 19 11.5 51.5q11.5 32.5 25 80q13.5 47.5 25 110q11.5 62.5 11.5 140.5q0 79 -11.5 141.5q-11.5 62.5 -25 110q-13.5 47.5 -25 79.5q-11.5 32 -11.5 51q0 30 16.5 46t45.5 16z" />
<glyph unicode="&#42;" horiz-adv-x="500" d="M211 473q-26 -20 -44.5 -36q-18.5 -16 -42.5 -16q-19 0 -32.5 15q-13.5 15 -13.5 35q0 26 23.5 39.5q23.5 13.5 71.5 29.5q-48 16 -71.5 29.5q-23.5 13.5 -23.5 39.5q0 20 13.5 35q13.5 15 32.5 15q24 0 42.5 -15.5q18.5 -15.5 44.5 -35.5q-2 21 -6 38q-4 17 -4 31q0 25 13 39.5q13 14.5 36 14.5q23 0 36.5 -14.5q13.5 -14.5 13.5 -38.5q0 -16 -4.5 -33q-4.5 -17 -6.5 -37q27 22 45.5 36.5q18.5 14.5 41.5 14.5q19 0 32.5 -15q13.5 -15 13.5 -35q0 -28 -24.5 -41q-24.5 -13 -70.5 -28q45 -15 70 -28q25 -13 25 -41q0 -20 -13.5 -35q-13.5 -15 -32.5 -15q-23 0 -41.5 15q-18.5 15 -45.5 37q2 -20 6.5 -37.5q4.5 -17.5 4.5 -32.5q0 -25 -13.5 -39.5q-13.5 -14.5 -36.5 -14.5q-23 0 -36 14.5q-13 14.5 -13 39.5q0 14 4 31.5t6 38.5z" />
<glyph unicode="&#43;" horiz-adv-x="830" d="M665 371q28 0 49 -12.5q21 -12.5 21 -38.5q0 -26 -19.5 -38.5q-19.5 -12.5 -51.5 -12.5h-198v-199q0 -28 -12.5 -49q-12.5 -21 -38.5 -21q-26 0 -38.5 19.5q-12.5 19.5 -12.5 51.5v198h-198q-28 0 -49.5 12q-21.5 12 -21.5 39q0 26 21 38.5q21 12.5 50 12.5h198v198q0 28 12 49.5q12 21.5 39 21.5q26 0 38.5 -21q12.5 -21 12.5 -50l0 -198z" />
<glyph unicode="&#44;" horiz-adv-x="252" d="M151 162q27 0 46.5 -17.5q19.5 -17.5 19.5 -44.5q0 -21 -16 -51l-79 -144q-30 -55 -70 -55q-26 0 -46 18q-20 18 -20 45q0 22 16 50l79 144q15 28 31.5 41.5t38.5 13.5z" />
<glyph unicode="&#45;" horiz-adv-x="428" d="M316 346q38 0 58 -18.5q20 -18.5 20 -50.5q0 -66 -79 -66h-203q-38 0 -58 17.5q-20 17.5 -20 49.5q0 32 20.5 50q20.5 18 58.5 18z" />
<glyph unicode="&#46;" horiz-adv-x="252" d="M137 175q19 0 35.5 -7.5q16.5 -7.5 29 -20q12.5 -12.5 19.5 -29q7 -16.5 7 -34.5q0 -40 -27 -65.5q-27 -25.5 -64 -25.5q-36 0 -63.5 24.5q-27.5 24.5 -27.5 66.5q0 19 7.5 35.5q7.5 16.5 20 29q12.5 12.5 29 19.5t34.5 7z" />
<glyph unicode="&#47;" horiz-adv-x="370" d="M350 733q27 0 46.5 -17.5q19.5 -17.5 19.5 -44.5q0 -11 -4 -23q-4 -12 -11 -26l-310 -587q-15 -29 -32 -43.5q-17 -14.5 -38 -14.5q-27 0 -46.5 18q-19.5 18 -19.5 45q0 21 14 48l311 587q15 28 31 43t39 15z" />
<glyph unicode="&#48;" horiz-adv-x="651" d="M325 731q66 0 121 -25.5q55 -25.5 94 -74q39 -48.5 60.5 -118.5q21.5 -70 21.5 -158q0 -89 -21.5 -158.5q-21.5 -69.5 -60.5 -118q-39 -48.5 -94 -74q-55 -25.5 -121 -25.5q-66 0 -120.5 25.5q-54.5 25.5 -93.5 74q-39 48.5 -60.5 118q-21.5 69.5 -21.5 158.5q0 88 21.5 158q21.5 70 60.5 118.5q39 48.5 93.5 74q54.5 25.5 120.5 25.5zt0 0zM326 581q-57 0 -93 -58q-36 -58 -36 -168q0 -110 35.5 -168q35.5 -58 93.5 -58q58 0 93 58.5q35 58.5 35 168.5q0 110 -35.5 167.5t-92.5 57.5z" />
<glyph unicode="&#49;" horiz-adv-x="360" d="M184 711q51 0 71 -27.5q20 -27.5 20 -87.5v-488q0 -58 -19.5 -86.5q-19.5 -28.5 -61.5 -28.5q-42 0 -61.5 28.5q-19.5 28.5 -19.5 86.5v453h-16q-109 0 -109 75q0 75 115 75z" />
<glyph unicode="&#50;" horiz-adv-x="525" d="M259 731q52 0 94 -16q42 -16 72 -44.5q30 -28.5 46 -67q16 -38.5 16 -83.5q0 -43 -16.5 -84.5q-16.5 -41.5 -48 -85.5q-31.5 -44 -77.5 -93q-46 -49 -104 -107l149 0q115 0 115 -75q0 -75 -115 -75h-287q-97 0 -97 75q0 30 34.5 69.5q34.5 39.5 94.5 105.5q86 95 133 157.5q47 62.5 47 104.5q0 31 -17.5 50q-17.5 19 -43.5 19q-21 0 -34.5 -11.5q-13.5 -11.5 -24 -29q-10.5 -17.5 -19 -37.5q-8.5 -20 -19 -37.5q-10.5 -17.5 -24.5 -29q-14 -11.5 -35 -11.5q-35 0 -57.5 22.5q-22.5 22.5 -22.5 60.5q0 40 17.5 80q17.5 40 49.5 71.5q32 31.5 76.5 51.5t97.5 20z" />
<glyph unicode="&#51;" horiz-adv-x="546" d="M257 731q46 0 85.5 -15.5q39.5 -15.5 67.5 -41.5q28 -26 44 -61.5q16 -35.5 16 -75.5q0 -46 -19.5 -81q-19.5 -35 -61.5 -65q60 -31 90 -75.5q30 -44.5 30 -106.5q0 -48 -19 -90q-19 -42 -53 -73q-34 -31 -81 -49q-47 -18 -103 -18q-49 0 -94 18q-45 18 -79 46.5q-34 28.5 -54 63.5q-20 35 -20 69q0 35 19.5 56q19.5 21 51.5 21q20 0 35 -9q15 -9 26.5 -23q11.5 -14 22.5 -30q11 -16 24 -30q13 -14 29.5 -23q16.5 -9 40.5 -9q36 0 61 26q25 26 25 65q0 43 -26 59.5q-26 16.5 -77 24.5q-36 6 -52 21.5q-16 15.5 -16 50.5q0 32 16 47.5q16 15.5 52 23.5q75 18 75 73q0 28 -16 44.5q-16 16.5 -43 16.5q-27 0 -44.5 -14q-17.5 -14 -34 -30.5q-16.5 -16.5 -35 -30q-18.5 -13.5 -46.5 -13.5q-26 0 -46.5 19.5q-20.5 19.5 -20.5 48.5q0 30 18 60q18 30 49.5 54.5q31.5 24.5 73.5 40t89 15.5z" />
<glyph unicode="&#52;" horiz-adv-x="630" d="M380 731q57 0 93 -41q36 -41 36 -126v-262h25q43 0 66.5 -21.5q23.5 -21.5 23.5 -52.5q0 -76 -99 -76h-16v-71q0 -43 -21 -65.5q-21 -22.5 -59 -22.5q-70 0 -70 94v65h-256q-50 0 -75 15q-25 15 -25 49q0 22 10.5 44q10.5 22 28.5 51l216 342q27 42 54 60q27 18 68 18zt0 0zM359 302v273l-170 -273z" />
<glyph unicode="&#53;" horiz-adv-x="530" d="M387 711q104 0 104 -75q0 -35 -24.5 -55q-24.5 -20 -73.5 -20h-167l-11 -86q37 9 69 9q45 0 84.5 -17.5q39.5 -17.5 68 -49q28.5 -31.5 45 -74.5q16.5 -43 16.5 -95q0 -57 -19.5 -106.5q-19.5 -49.5 -55 -85.5q-35.5 -36 -85 -56.5q-49.5 -20.5 -109.5 -20.5q-48 0 -89 12q-41 12 -72 31.5q-31 19.5 -48.5 45q-17.5 25.5 -17.5 52.5q0 32 19 52q19 20 48 20q18 0 35 -10q17 -10 35.5 -21.5q18.5 -11.5 39.5 -21.5q21 -10 48 -10q21 0 39 9q18 9 31.5 24q13.5 15 21 35q7.5 20 7.5 43q0 48 -23.5 73.5q-23.5 25.5 -64.5 25.5q-15 0 -30.5 -4q-15.5 -4 -30.5 -8.5q-15 -4.5 -29.5 -8.5q-14.5 -4 -28.5 -4q-63 0 -63 70q0 7 1.5 21.5q1.5 14.5 3.5 34.5l23 185q3 28 10.5 45q7.5 17 20.5 26q13 9 31.5 12q18.5 3 43.5 3z" />
<glyph unicode="&#54;" horiz-adv-x="570" d="M284 454q15 3 30.5 4.5q15.5 1.5 26.5 1.5q41 0 78 -17q37 -17 65 -48q28 -31 44.5 -73q16.5 -42 16.5 -91q0 -51 -20 -97q-20 -46 -55.5 -80.5q-35.5 -34.5 -84.5 -54.5q-49 -20 -107 -20q-54 0 -100.5 19q-46.5 19 -80.5 53q-34 34 -53 81q-19 47 -19 104q0 76 42.5 166.5q42.5 90.5 126.5 194.5q54 66 91.5 100q37.5 34 68.5 34q31 0 54.5 -21.5q23.5 -21.5 23.5 -51.5q0 -19 -12.5 -38q-12.5 -19 -33.5 -42.5q-21 -23.5 -47.5 -53.5q-26.5 -30 -54.5 -70zt0 0zM193 228q0 -42 27 -70.5q27 -28.5 65 -28.5q38 0 65 28.5q27 28.5 27 70.5q0 42 -27 69.5q-27 27.5 -65 27.5q-38 0 -65 -27.5t-27 -69.5z" />
<glyph unicode="&#55;" horiz-adv-x="480" d="M357 711q118 0 118 -89q0 -10 -4 -26q-4 -16 -12 -34l-235 -507q-36 -76 -85 -76q-36 0 -60 22.5q-24 22.5 -24 56.5q0 16 6 33.5q6 17.5 16 37.5l210 432h-184q-53 0 -81 14.5q-28 14.5 -28 58.5q0 37 24 57q24 20 73 20z" />
<glyph unicode="&#56;" horiz-adv-x="570" d="M122 389q-65 57 -65 142q0 42 17 78.5q17 36.5 47.5 63.5q30.5 27 72.5 42.5q42 15.5 91 15.5q49 0 91 -15.5q42 -15.5 72.5 -42.5q30.5 -27 48 -63.5q17.5 -36.5 17.5 -78.5q0 -84 -66 -142q95 -62 95 -178q0 -48 -18.5 -90.5q-18.5 -42.5 -52.5 -74q-34 -31.5 -81.5 -49.5q-47.5 -18 -105.5 -18q-58 0 -105.5 18q-47.5 18 -81.5 49.5q-34 31.5 -52.5 74q-18.5 42.5 -18.5 90.5q0 57 23.5 102.5q23.5 45.5 71.5 75.5zt0 0zM189 226q0 -21 7.5 -40q7.5 -19 21 -32.5q13.5 -13.5 30.5 -21.5q17 -8 37 -8q19 0 36.5 8q17.5 8 31 21.5q13.5 13.5 21 32q7.5 18.5 7.5 40.5q0 44 -28 73.5q-28 29.5 -68 29.5q-20 0 -37 -8q-17 -8 -30.5 -22q-13.5 -14 -21 -32.5q-7.5 -18.5 -7.5 -40.5zt0 0zM212 516q0 -15 6 -28.5q6 -13.5 16 -24q10 -10.5 23 -16.5q13 -6 28 -6q31 0 52.5 22q21.5 22 21.5 53q0 32 -21.5 54q-21.5 22 -52.5 22q-30 0 -51.5 -22t-21.5 -54z" />
<glyph unicode="&#57;" horiz-adv-x="570" d="M286 256q-15 -3 -30.5 -4.5q-15.5 -1.5 -26.5 -1.5q-41 0 -78 17q-37 17 -65 48q-28 31 -44.5 72.5q-16.5 41.5 -16.5 91.5q0 51 20 97q20 46 55.5 80.5q35.5 34.5 84.5 54.5q49 20 107 20q54 0 100.5 -19q46.5 -19 80.5 -53q34 -34 53 -81q19 -47 19 -104q0 -76 -42.5 -166.5q-42.5 -90.5 -126.5 -194.5q-54 -66 -91.5 -100q-37.5 -34 -68.5 -34q-31 0 -54.5 21.5q-23.5 21.5 -23.5 51.5q0 19 12.5 38q12.5 19 33.5 42.5q21 23.5 47.5 53q26.5 29.5 54.5 70.5zt0 0zM377 482q0 42 -27 70.5q-27 28.5 -65 28.5q-38 0 -65 -28.5q-27 -28.5 -27 -70.5q0 -42 27 -69.5q27 -27.5 65 -27.5q38 0 65 27.5t27 69.5z" />
<glyph unicode="&#58;" horiz-adv-x="252" d="M137 175q19 0 35.5 -7.5q16.5 -7.5 29 -20q12.5 -12.5 19.5 -29q7 -16.5 7 -34.5q0 -40 -27 -65.5q-27 -25.5 -64 -25.5q-36 0 -63.5 24.5q-27.5 24.5 -27.5 66.5q0 19 7.5 35.5q7.5 16.5 20 29q12.5 12.5 29 19.5q16.5 7 34.5 7zt0 0zM137 478q19 0 35.5 -7.5q16.5 -7.5 29 -20q12.5 -12.5 19.5 -29q7 -16.5 7 -34.5q0 -40 -27 -65.5q-27 -25.5 -64 -25.5q-36 0 -63.5 24.5q-27.5 24.5 -27.5 66.5q0 19 7.5 35.5q7.5 16.5 20 29q12.5 12.5 29 19.5t34.5 7z" />
<glyph unicode="&#59;" horiz-adv-x="252" d="M137 478q19 0 35.5 -7.5q16.5 -7.5 29 -20q12.5 -12.5 19.5 -29q7 -16.5 7 -34.5q0 -40 -27 -65.5q-27 -25.5 -64 -25.5q-36 0 -63.5 24.5q-27.5 24.5 -27.5 66.5q0 19 7.5 35.5q7.5 16.5 20 29q12.5 12.5 29 19.5q16.5 7 34.5 7zt0 0zM151 162q27 0 46.5 -17.5q19.5 -17.5 19.5 -44.5q0 -21 -16 -51l-79 -144q-30 -55 -70 -55q-26 0 -46 18q-20 18 -20 45q0 22 16 50l79 144q15 28 31.5 41.5t38.5 13.5z" />
<glyph unicode="&#60;" horiz-adv-x="787" d="M70 297q0 16 8.5 30q8.5 14 22.5 20l541 222q12 5 21.5 7.5q9.5 2.5 14.5 2.5q14 0 26.5 -13.5q12.5 -13.5 12.5 -33.5q0 -24 -12 -36.5q-12 -12.5 -29 -19.5l-437 -178l437 -178q17 -7 29 -21q12 -14 12 -37q0 -24 -14 -34q-14 -10 -25 -10q-13 0 -33 8l-544 224q-14 6 -22.5 17t-8.5 30z" />
<glyph unicode="&#61;" horiz-adv-x="810" d="M640 468q28 0 49 -12.5q21 -12.5 21 -38.5q0 -26 -19.5 -38.5q-19.5 -12.5 -51.5 -12.5h-468q-28 0 -49.5 12q-21.5 12 -21.5 39q0 26 21 38.5q21 12.5 50 12.5zM640 254q28 0 49 -12.5q21 -12.5 21 -38.5q0 -26 -19.5 -38.5q-19.5 -12.5 -51.5 -12.5h-468q-28 0 -49.5 12q-21.5 12 -21.5 39q0 26 21 38.5q21 12.5 50 12.5z" />
<glyph unicode="&#62;" horiz-adv-x="787" d="M717 297q0 -19 -8.5 -30q-8.5 -11 -22.5 -17l-544 -224q-20 -8 -33 -8q-11 0 -25 8.5q-14 8.5 -14 32.5q0 23 11.5 38q11.5 15 29.5 23l437 178l-437 178q-17 7 -29 19.5q-12 12.5 -12 36.5q0 20 12.5 33.5q12.5 13.5 26.5 13.5q5 0 13.5 -2q8.5 -2 22.5 -8l541 -222q14 -6 22.5 -20t8.5 -30z" />
<glyph unicode="&#63;" horiz-adv-x="509" d="M233 157q17 0 32.5 -7q15.5 -7 27.5 -18.5q12 -11.5 19 -27q7 -15.5 7 -32.5q0 -37 -26 -61q-26 -24 -60 -24q-33 0 -58.5 23q-25.5 23 -25.5 61q0 17 7 32.5q7 15.5 18.5 27.5q11.5 12 26.5 19q15 7 32 7zt0 0zM243 728q54 0 98 -18q44 -18 75.5 -48.5q31.5 -30.5 49 -71q17.5 -40.5 17.5 -85.5q0 -81 -47 -138q-47 -57 -128 -72q0 -50 -21.5 -74q-21.5 -24 -56.5 -24q-35 0 -55.5 21.5q-20.5 21.5 -20.5 66.5v63q0 20 3.5 32.5q3.5 12.5 12.5 20.5q9 8 23.5 13q14.5 5 37.5 10q46 11 64 33.5q18 22.5 18 54.5q0 27 -20.5 46.5q-20.5 19.5 -49.5 19.5q-35 0 -56.5 -16q-21.5 -16 -39 -35q-17.5 -19 -34.5 -35q-17 -16 -43 -16q-28 0 -46.5 20.5q-18.5 20.5 -18.5 52.5q0 31 17.5 62.5q17.5 31.5 49 57.5q31.5 26 75 42.5t96.5 16.5z" />
<glyph unicode="&#64;" horiz-adv-x="1000" d="M594 342q-12 81 -85 81q-27 0 -52 -16q-25 -16 -44 -44q-19 -28 -30.5 -65.5q-11.5 -37.5 -11.5 -80.5q0 -92 77 -92q39 0 73 29.5q34 29.5 47 81.5zM570 133q-27 -42 -62 -61q-35 -19 -83 -19q-78 0 -118 42.5q-40 42.5 -40 123.5q0 59 18.5 109.5q18.5 50.5 50.5 87q32 36.5 75 57.5q43 21 92 21q40 0 72 -17q32 -17 50 -49l8 24q8 25 19.5 33.5q11.5 8.5 33.5 8.5q17 0 27 -8.5q10 -8.5 10 -20.5q0 -10 -2 -22.5q-2 -12.5 -7 -33.5l-51 -207q-2 -8 -4.5 -20q-2.5 -12 -2.5 -16q0 -34 46 -34q37 0 67.5 24q30.5 24 52.5 60q22 36 33.5 78.5q11.5 42.5 11.5 80.5q0 57 -23 106q-23 49 -66 85q-43 36 -103 56.5q-60 20.5 -133 20.5q-90 0 -165 -29.5q-75 -29.5 -129 -82q-54 -52.5 -84 -123.5q-30 -71 -30 -153q0 -75 26.5 -136q26.5 -61 75 -103.5q48.5 -42.5 117 -66q68.5 -23.5 152.5 -23.5q80 0 156 24q76 24 139 69q9 7 19.5 11.5q10.5 4.5 24.5 4.5q12 0 17.5 -8.5q5.5 -8.5 5.5 -20.5q0 -11 -9 -24q-9 -13 -18 -20q-151 -113 -333 -113q-99 0 -183.5 27.5q-84.5 27.5 -146.5 79.5q-62 52 -97.5 127.5q-35.5 75.5 -35.5 170.5q0 104 39 190q39 86 107 148q68 62 159.5 96.5q91.5 34.5 195.5 34.5q87 0 162 -24q75 -24 130.5 -69q55.5 -45 87.5 -110q32 -65 32 -147q0 -60 -20.5 -117.5q-20.5 -57.5 -57.5 -102.5q-37 -45 -89 -72.5q-52 -27.5 -115 -27.5q-105 0 -105 80z" />
<glyph unicode="&#65;" horiz-adv-x="637" d="M399 284l-81 263l-88 -263zM322 723q85 0 119 -94l180 -511q11 -31 11 -51q0 -35 -23 -55.5q-23 -20.5 -57 -20.5q-32 0 -52 19.5q-20 19.5 -33 59.5l-20 64h-263l-24 -70q-11 -34 -31.5 -53.5q-20.5 -19.5 -46.5 -19.5q-34 0 -55.5 22q-21.5 22 -21.5 56q0 12 1.5 24q1.5 12 6.5 23l185 502q20 54 49.5 79.5t74.5 25.5z" />
<glyph unicode="&#66;" horiz-adv-x="616" d="M308 711q110 0 166 -48q56 -48 56 -129q0 -102 -88 -140q70 -17 107 -63.5q37 -46.5 37 -116.5q0 -98 -64.5 -156q-64.5 -58 -188.5 -58h-160q-32 0 -53.5 5q-21.5 5 -34 17q-12.5 12 -17.5 31.5q-5 19.5 -5 48.5v495q0 30 5 51.5q5 21.5 17.5 35.5q12.5 14 34 20.5q21.5 6.5 55.5 6.5zM225 138h80q55 0 83 21.5q28 21.5 28 59.5q0 42 -28 61q-28 19 -85 19h-78zM225 434h68q37 0 58.5 19.5q21.5 19.5 21.5 49.5q0 32 -22 51q-22 19 -60 19l-66 0z" />
<glyph unicode="&#67;" horiz-adv-x="630" d="M381 732q47 0 86 -9q39 -9 67 -24q28 -15 43.5 -34.5q15.5 -19.5 15.5 -40.5q0 -29 -20.5 -52.5q-20.5 -23.5 -49.5 -23.5q-14 0 -29.5 4.5q-15.5 4.5 -33 10q-17.5 5.5 -37.5 10q-20 4.5 -42 4.5q-39 0 -71 -16q-32 -16 -55.5 -45.5q-23.5 -29.5 -36 -71.5q-12.5 -42 -12.5 -93q0 -50 13 -90q13 -40 36.5 -68.5q23.5 -28.5 56.5 -43.5q33 -15 74 -15q25 0 46.5 6q21.5 6 40 13.5q18.5 7.5 34.5 13.5q16 6 30 6q25 0 45 -21q20 -21 20 -50q0 -24 -16 -46q-16 -22 -45.5 -39q-29.5 -17 -71 -27.5q-41.5 -10.5 -91.5 -10.5q-77 0 -141 26.5q-64 26.5 -110 75.5q-46 49 -71.5 118.5q-25.5 69.5 -25.5 155.5q0 85 27.5 155q27.5 70 74.5 119q47 49 111 76t138 27z" />
<glyph unicode="&#68;" horiz-adv-x="698" d="M321 711q75 0 138.5 -24.5q63.5 -24.5 110 -70q46.5 -45.5 72.5 -110q26 -64.5 26 -143.5q0 -83 -23.5 -150q-23.5 -67 -68.5 -114.5q-45 -47.5 -109.5 -73q-64.5 -25.5 -145.5 -25.5h-148q-32 0 -53.5 5q-21.5 5 -34 17q-12.5 12 -17.5 31.5q-5 19.5 -5 48.5v495q0 30 5 51.5q5 21.5 17.5 35.5q12.5 14 34 20.5q21.5 6.5 55.5 6.5zM225 150h74q193 0 193 214q0 197 -196 197l-71 0z" />
<glyph unicode="&#69;" horiz-adv-x="505" d="M225 433h114q115 0 115 -75q0 -75 -115 -75h-114v-133h137q115 0 115 -75q0 -75 -115 -75h-189q-32 0 -53.5 5q-21.5 5 -34 17q-12.5 12 -17.5 31.5q-5 19.5 -5 48.5v495q0 30 5 51.5q5 21.5 17.5 35.5q12.5 14 34 20.5q21.5 6.5 55.5 6.5h182q115 0 115 -76q0 -74 -115 -74l-132 0z" />
<glyph unicode="&#70;" horiz-adv-x="490" d="M225 433h114q115 0 115 -75q0 -75 -115 -75h-114v-177q0 -115 -81 -115q-81 0 -81 115v491q0 30 5 51.5q5 21.5 17.5 35.5q12.5 14 34 20.5q21.5 6.5 55.5 6.5h182q115 0 115 -76q0 -74 -115 -74l-132 0z" />
<glyph unicode="&#71;" horiz-adv-x="729" d="M389 732q59 0 107.5 -13.5q48.5 -13.5 83 -34.5q34.5 -21 53 -47.5q18.5 -26.5 18.5 -52.5q0 -30 -20 -53q-20 -23 -49 -23q-18 0 -37.5 11q-19.5 11 -43 23.5q-23.5 12.5 -52 23.5q-28.5 11 -65.5 11q-82 0 -130 -57.5q-48 -57.5 -48 -160.5q0 -106 48.5 -165.5q48.5 -59.5 128.5 -59.5q64 0 104 39q40 39 40 104l-57 0q-57 0 -85.5 17.5q-28.5 17.5 -28.5 57.5q0 40 28.5 57.5q28.5 17.5 85.5 17.5h119q60 0 87 -23.5q27 -23.5 27 -82.5q0 -74 -23.5 -137q-23.5 -63 -67 -108.5q-43.5 -45.5 -105 -71q-61.5 -25.5 -137.5 -25.5q-74 0 -136.5 27q-62.5 27 -107.5 76.5q-45 49.5 -70.5 119q-25.5 69.5 -25.5 154.5q0 87 25.5 156.5q25.5 69.5 72.5 118q47 48.5 113 75t148 26.5z" />
<glyph unicode="&#72;" horiz-adv-x="748" d="M523 437v171q0 115 81 115q81 0 81 -115v-502q0 -115 -81 -115q-81 0 -81 115v181h-298v-181q0 -115 -81 -115q-81 0 -81 115v502q0 115 81 115q81 0 81 -115l0 -171z" />
<glyph unicode="&#73;" horiz-adv-x="296" d="M148 723q81 0 81 -115v-502q0 -115 -81 -115q-81 0 -81 115v502q0 115 81 115z" />
<glyph unicode="&#74;" horiz-adv-x="458" d="M314 723q81 0 81 -115v-391q0 -118 -53 -178q-53 -60 -155 -60q-42 0 -76 10q-34 10 -58 26.5q-24 16.5 -37.5 38q-13.5 21.5 -13.5 44.5q0 32 20.5 52.5q20.5 20.5 54.5 20.5q15 0 28.5 -6q13.5 -6 26 -12.5q12.5 -6.5 24.5 -12.5q12 -6 24 -6q33 0 43 35q10 35 10 100v339q0 115 81 115z" />
<glyph unicode="&#75;" horiz-adv-x="635" d="M144 723q81 0 81 -115v-179l210 238q23 26 42.5 41q19.5 15 41.5 15q29 0 51 -22q22 -22 22 -52q0 -37 -41 -80l-179 -187l217 -236q41 -46 41 -80q0 -32 -23.5 -53.5q-23.5 -21.5 -51.5 -21.5q-26 0 -45 16q-19 16 -42 41l-243 268v-210q0 -115 -81 -115q-81 0 -81 115v502q0 115 81 115z" />
<glyph unicode="&#76;" horiz-adv-x="477" d="M144 723q81 0 81 -115v-458h137q115 0 115 -75q0 -75 -115 -75h-189q-32 0 -53.5 5q-21.5 5 -34 17q-12.5 12 -17.5 31.5q-5 19.5 -5 48.5v506q0 115 81 115z" />
<glyph unicode="&#77;" horiz-adv-x="869" d="M221 723q89 0 113 -99l108 -425l101 426q11 47 38.5 72.5q27.5 25.5 72.5 25.5q54 0 79 -30q25 -30 35 -90l79 -489q4 -23 4 -39q0 -40 -23 -62q-23 -22 -59 -22q-70 0 -80 94l-50 425h-1l-110 -438q-4 -17 -10 -31.5q-6 -14.5 -16 -25.5q-10 -11 -25.5 -17.5q-15.5 -6.5 -38.5 -6.5q-40 0 -62 17.5q-22 17.5 -33 63.5l-104 438h-1l-56 -415q-8 -54 -27.5 -79q-19.5 -25 -57.5 -25q-35 0 -57 22q-22 22 -22 62q0 17 6 49l87 485q10 57 34 85.5t76 28.5z" />
<glyph unicode="&#78;" horiz-adv-x="748" d="M138 723q26 0 46 -15q20 -15 40 -41l299 -395v336q0 115 81 115q81 0 81 -115v-520q0 -51 -17.5 -74q-17.5 -23 -56.5 -23q-26 0 -55 21.5q-29 21.5 -57 58.5l-274 362v-327q0 -115 -81 -115q-81 0 -81 115v505q0 54 18 83t57 29z" />
<glyph unicode="&#79;" horiz-adv-x="758" d="M379 732q78 0 142 -27q64 -27 110 -76.5q46 -49.5 71.5 -119q25.5 -69.5 25.5 -154.5q0 -84 -25 -153.5q-25 -69.5 -71 -119q-46 -49.5 -110 -76.5q-64 -27 -143 -27q-79 0 -143.5 27q-64.5 27 -110 76.5q-45.5 49.5 -70.5 119q-25 69.5 -25 153.5q0 85 25.5 154.5q25.5 69.5 71.5 119q46 49.5 110 76.5q64 27 142 27zt0 0zM379 577q-39 0 -70.5 -15q-31.5 -15 -54.5 -44q-23 -29 -35.5 -70.5q-12.5 -41.5 -12.5 -94.5q0 -51 12.5 -91.5q12.5 -40.5 35.5 -69q23 -28.5 55 -43.5q32 -15 70 -15q38 0 70 15q32 15 55 43.5q23 28.5 35.5 69q12.5 40.5 12.5 91.5q0 53 -12.5 94.5q-12.5 41.5 -35.5 70.5q-23 29 -54.5 44t-70.5 15z" />
<glyph unicode="&#80;" horiz-adv-x="612" d="M225 375h70q111 0 111 94q0 48 -27 70.5q-27 22.5 -84 22.5h-70zM321 711q61 0 109.5 -17q48.5 -17 82 -48.5q33.5 -31.5 51.5 -76.5q18 -45 18 -100q0 -112 -65 -176.5q-65 -64.5 -183 -64.5h-109v-122q0 -115 -81 -115q-81 0 -81 115v491q0 30 5 51.5q5 21.5 17.5 35.5q12.5 14 34 20.5q21.5 6.5 55.5 6.5z" />
<glyph unicode="&#81;" horiz-adv-x="758" d="M555 23q-38 -23 -81 -33.5q-43 -10.5 -95 -10.5q-79 0 -143.5 27q-64.5 27 -110 76.5q-45.5 49.5 -70.5 119q-25 69.5 -25 153.5q0 85 25.5 154.5q25.5 69.5 71 119q45.5 49.5 110 76.5q64.5 27 142.5 27q77 0 141.5 -27q64.5 -27 110.5 -76.5q46 -49.5 71.5 -118.5q25.5 -69 25.5 -154q0 -131 -64 -230l50 -46q17 -15 26 -34q9 -19 9 -36q0 -29 -20.5 -49.5q-20.5 -20.5 -48.5 -20.5q-35 0 -71 33zM433 144q-23 20 -34 36.5q-11 16.5 -11 37.5q0 29 18 47.5q18 18.5 44 18.5q20 0 39 -12q19 -12 42 -35q21 57 21 116q0 53 -12.5 94.5q-12.5 41.5 -35.5 70.5q-23 29 -54.5 44q-31.5 15 -70.5 15q-39 0 -70.5 -15q-31.5 -15 -54.5 -44q-23 -29 -35.5 -70.5q-12.5 -41.5 -12.5 -94.5q0 -51 12.5 -91.5q12.5 -40.5 35.5 -69q23 -28.5 55.5 -43.5q32.5 -15 71.5 -15q26 0 52 10z" />
<glyph unicode="&#82;" horiz-adv-x="608" d="M225 389h75q50 0 76.5 23q26.5 23 26.5 65q0 40 -26 62q-26 22 -75 22h-77zM301 711q66 0 116.5 -16.5q50.5 -16.5 85 -45.5q34.5 -29 52 -70q17.5 -41 17.5 -90q0 -76 -44.5 -127q-44.5 -51 -125.5 -65l128 -142q48 -54 48 -93q0 -32 -21.5 -51.5q-21.5 -19.5 -55.5 -19.5q-24 0 -44 12.5q-20 12.5 -43 40.5l-189 237v-175q0 -115 -81 -115q-81 0 -81 115v491q0 30 5 51.5q5 21.5 17.5 35.5q12.5 14 34 20.5q21.5 6.5 55.5 6.5z" />
<glyph unicode="&#83;" horiz-adv-x="566" d="M296 732q44 0 80 -8.5q36 -8.5 61.5 -23.5q25.5 -15 39 -34.5q13.5 -19.5 13.5 -40.5q0 -32 -19 -50.5q-19 -18.5 -54 -18.5q-15 0 -30.5 4q-15.5 4 -31.5 9q-16 5 -32.5 9q-16.5 4 -32.5 4q-38 0 -58.5 -18q-20.5 -18 -20.5 -44q0 -19 9 -31q9 -12 25.5 -20q16.5 -8 40.5 -15.5q24 -7.5 54 -17.5q100 -33 148 -84q48 -51 48 -132q0 -52 -19 -96q-19 -44 -55 -76.5q-36 -32.5 -87 -50.5q-51 -18 -115 -18q-50 0 -92 10q-42 10 -73 26.5q-31 16.5 -48 37q-17 20.5 -17 42.5q0 32 21 52.5q21 20.5 59 20.5q16 0 35 -6q19 -6 40.5 -13.5q21.5 -7.5 46 -13.5q24.5 -6 51.5 -6q34 0 57 22q23 22 23 54q0 21 -8.5 36q-8.5 15 -24.5 26q-16 11 -39 19q-23 8 -52 17q-51 15 -89 33q-38 18 -63 41.5q-25 23.5 -37 54.5q-12 31 -12 73q0 48 18 89.5q18 41.5 52 72q34 30.5 81.5 48t106.5 17.5z" />
<glyph unicode="&#84;" horiz-adv-x="512" d="M397 711q115 0 115 -76q0 -74 -115 -74h-60v-455q0 -115 -81 -115q-81 0 -81 115v455h-60q-115 0 -115 74q0 76 115 76z" />
<glyph unicode="&#85;" horiz-adv-x="736" d="M144 723q81 0 81 -115v-285q0 -189 143 -189q143 0 143 189v285q0 115 81 115q81 0 81 -115v-303q0 -80 -21.5 -140.5q-21.5 -60.5 -61.5 -102q-40 -41.5 -96 -62.5q-56 -21 -126 -21q-70 0 -126.5 21q-56.5 21 -96 62.5q-39.5 41.5 -61 102q-21.5 60.5 -21.5 140.5v303q0 115 81 115z" />
<glyph unicode="&#86;" horiz-adv-x="616" d="M89 723q27 0 43.5 -16.5q16.5 -16.5 30.5 -53.5l150 -404l139 398q14 40 31 58q17 18 49 18q37 0 58 -20q21 -20 21 -55q0 -12 -2.5 -26.5q-2.5 -14.5 -8.5 -29.5l-210 -534q-14 -36 -33 -51.5q-19 -15.5 -49 -15.5q-29 0 -46.5 14.5q-17.5 14.5 -30.5 46.5l-217 544q-4 10 -6.5 22.5q-2.5 12.5 -2.5 23.5q0 35 24 58t60 23z" />
<glyph unicode="&#87;" horiz-adv-x="914" d="M87 723q32 0 52 -20.5q20 -20.5 26 -52.5l85 -452l118 454q9 34 31.5 52.5q22.5 18.5 58.5 18.5q35 0 57 -19q22 -19 31 -54l116 -452l85 441q8 42 27 63q19 21 55 21q37 0 58.5 -23q21.5 -23 21.5 -55q0 -14 -3 -31.5q-3 -17.5 -7 -32.5l-120 -483q-7 -27 -15 -47.5q-8 -20.5 -20 -33.5q-12 -13 -30.5 -19.5q-18.5 -6.5 -46.5 -6.5q-85 0 -108 91l-106 406l-100 -397q-25 -100 -117 -100q-48 0 -73 25q-25 25 -38 82l-114 497q-2 11 -4 25.5q-2 14.5 -2 27.5q0 34 23 54.5t59 20.5z" />
<glyph unicode="&#88;" horiz-adv-x="607" d="M122 723q21 0 40.5 -16.5q19.5 -16.5 42.5 -48.5l100 -140l102 142q45 63 86 63q13 0 26 -6.5q13 -6.5 23 -16.5q10 -10 16 -23q6 -13 6 -26q0 -21 -10 -40q-10 -19 -26 -42l-131 -182l173 -244q17 -25 27 -43.5q10 -18.5 10 -38.5q0 -27 -22 -48.5q-22 -21.5 -52 -21.5q-25 0 -45.5 15q-20.5 15 -42.5 46l-144 202l-143 -201q-21 -30 -41.5 -46q-20.5 -16 -43.5 -16q-15 0 -28 6q-13 6 -23 16q-10 10 -16 23q-6 13 -6 26q0 22 10 40.5q10 18.5 26 41.5l173 241l-130 182q-16 22 -26 41q-10 19 -10 39q0 30 22 53t57 23z" />
<glyph unicode="&#89;" horiz-adv-x="563" d="M77 723q20 0 41 -17q21 -17 43 -48l121 -173l123 175q20 29 43 46q23 17 44 17q13 0 26 -6.5q13 -6.5 23 -16.5q10 -10 16 -23q6 -13 6 -26q0 -19 -9.5 -37.5q-9.5 -18.5 -27.5 -44.5l-164 -234v-229q0 -115 -81 -115q-81 0 -81 115v229l-164 232q-17 24 -26.5 43q-9.5 19 -9.5 39q0 27 21 50.5t56 23.5z" />
<glyph unicode="&#90;" horiz-adv-x="546" d="M401 711q70 0 104.5 -18.5q34.5 -18.5 34.5 -60.5q0 -19 -9 -40q-9 -21 -38 -59l-283 -383h221q115 0 115 -75q0 -75 -115 -75h-317q-114 0 -114 81q0 29 13 51q13 22 32 47l288 382h-207q-115 0 -115 76q0 74 115 74z" />
<glyph unicode="&#91;" horiz-adv-x="324" d="M194 -41h48q38 0 57.5 -14.5q19.5 -14.5 19.5 -39.5q0 -53 -78 -53h-72q-32 0 -53.5 5q-21.5 5 -34.5 17q-13 12 -18 31.5q-5 19.5 -5 48.5v684q0 30 5 51.5q5 21.5 17.5 35.5q12.5 14 34 20.5q21.5 6.5 55.5 6.5h72q38 0 57.5 -14q19.5 -14 19.5 -39q0 -54 -78 -54l-47 0z" />
<glyph unicode="&#92;" horiz-adv-x="370" d="M21 733q23 0 39 -15q16 -15 31 -43l310 -587q15 -29 15 -48q0 -27 -20 -45q-20 -18 -47 -18q-21 0 -37.5 14.5q-16.5 14.5 -32.5 43.5l-310 587q-14 27 -14 49q0 27 19.5 44.5t46.5 17.5z" />
<glyph unicode="&#93;" horiz-adv-x="324" d="M130 645h-47q-78 0 -78 54q0 25 19.5 39q19.5 14 57.5 14h72q34 0 55.5 -6.5q21.5 -6.5 34 -20.5q12.5 -14 17.5 -35.5q5 -21.5 5 -51.5v-684q0 -29 -5 -48.5q-5 -19.5 -17.5 -31.5q-12.5 -12 -34 -17q-21.5 -5 -53.5 -5h-73q-78 0 -78 53q0 25 19.5 39.5q19.5 14.5 57.5 14.5l48 0z" />
<glyph unicode="&#94;" horiz-adv-x="700" d="M350 731q21 0 47.5 -12.5q26.5 -12.5 38.5 -32.5l190 -316q7 -12 13.5 -29.5q6.5 -17.5 6.5 -37.5q0 -23 -15.5 -39q-15.5 -16 -39.5 -16q-27 0 -49.5 15q-22.5 15 -45.5 55l-146 260l-146 -260q-23 -40 -45.5 -55q-22.5 -15 -49.5 -15q-24 0 -39.5 16q-15.5 16 -15.5 39q0 20 6.5 37.5q6.5 17.5 13.5 29.5l189 315q13 21 39.5 33.5t47.5 12.5z" />
<glyph unicode="&#95;" horiz-adv-x="500" d="M500 -136q28 0 49 -12.5q21 -12.5 21 -38.5q0 -26 -19.5 -38.5q-19.5 -12.5 -51.5 -12.5h-499q-28 0 -49.5 12q-21.5 12 -21.5 39q0 26 21 38.5q21 12.5 50 12.5z" />
<glyph unicode="&#96;" horiz-adv-x="500" d="M181 808q34 0 57 -32l73 -100q17 -23 17 -44q0 -25 -15 -40q-15 -15 -39 -15q-27 0 -54 31l-76 84q-26 29 -26 54q0 27 18 44.5t45 17.5z" />
<glyph unicode="&#97;" horiz-adv-x="603" d="M289 402q-21 0 -40 -10q-19 -10 -32.5 -28q-13.5 -18 -21.5 -42.5q-8 -24.5 -8 -53.5q0 -30 8 -55q8 -25 21.5 -43.5q13.5 -18.5 32 -28.5q18.5 -10 40.5 -10q22 0 40.5 10.5q18.5 10.5 32.5 29q14 18.5 22 43.5q8 25 8 54q0 29 -8 53.5q-8 24.5 -22 42.5q-14 18 -33 28q-19 10 -40 10zt0 0zM396 48q-24 -29 -57.5 -45q-33.5 -16 -74.5 -16q-48 0 -91.5 20.5q-43.5 20.5 -76.5 57q-33 36.5 -52 88q-19 51.5 -19 113.5q0 60 19.5 111q19.5 51 53 88.5q33.5 37.5 78 59q44.5 21.5 94.5 21.5q41 0 71.5 -14q30.5 -14 54.5 -43q28 50 75 50q41 0 59.5 -28q18.5 -28 18.5 -86v-317q0 -115 -78 -115q-50 0 -75 55z" />
<glyph unicode="&#98;" horiz-adv-x="603" d="M211 503q23 20 54 31.5q31 11.5 71 11.5q49 0 93 -20.5q44 -20.5 77 -57.5q33 -37 52.5 -88.5q19.5 -51.5 19.5 -113.5q0 -58 -19.5 -109q-19.5 -51 -53 -88.5q-33.5 -37.5 -77.5 -59.5q-44 -22 -92 -22q-39 0 -72 15.5q-33 15.5 -56 41.5q-29 -51 -75 -51q-79 0 -79 115v540q0 115 79 115q41 0 59.5 -28.5q18.5 -28.5 18.5 -86.5zM313 402q-45 0 -73.5 -37q-28.5 -37 -28.5 -100q0 -62 28.5 -98q28.5 -36 73.5 -36q22 0 41 10q19 10 32.5 28.5q13.5 18.5 21.5 43.5q8 25 8 55q0 62 -29 98t-74 36z" />
<glyph unicode="&#99;" horiz-adv-x="497" d="M296 546q80 0 128 -28q48 -28 48 -73q0 -29 -18 -48q-18 -19 -47 -19q-11 0 -23.5 3.5q-12.5 3.5 -26 8q-13.5 4.5 -29 8.5q-15.5 4 -32.5 4q-48 0 -78.5 -38q-30.5 -38 -30.5 -99q0 -62 30.5 -98q30.5 -36 84.5 -36q17 0 32.5 3.5q15.5 3.5 29 8q13.5 4.5 25 8.5q11.5 4 21.5 4q27 0 44 -20q17 -20 17 -48q0 -21 -13.5 -39q-13.5 -18 -38 -31.5q-24.5 -13.5 -58.5 -21.5q-34 -8 -75 -8q-58 0 -106 20q-48 20 -82.5 57q-34.5 37 -53.5 88q-19 51 -19 114q0 61 19 112.5q19 51.5 54.5 88.5q35.5 37 85.5 58t112 21z" />
<glyph unicode="&#100;" horiz-adv-x="603" d="M396 44q-24 -26 -57 -41.5q-33 -15.5 -71 -15.5q-48 0 -92 21.5q-44 21.5 -77.5 60q-33.5 38.5 -53.5 90.5q-20 52 -20 112q0 60 19.5 110.5q19.5 50.5 52.5 87q33 36.5 77 57q44 20.5 94 20.5q35 0 66 -9.5q31 -9.5 58 -32.5l0 144q0 115 79 115q78 0 78 -115v-540q0 -58 -18.5 -86.5q-18.5 -28.5 -59.5 -28.5q-47 0 -75 51zt0 0zM291 402q-45 0 -74.5 -36q-29.5 -36 -29.5 -98q0 -30 8 -55q8 -25 22 -43.5q14 -18.5 33 -28.5q19 -10 41 -10q45 0 73 38q28 38 28 99q0 63 -28 98.5t-73 35.5z" />
<glyph unicode="&#101;" horiz-adv-x="572" d="M187 223q5 -45 36.5 -71.5q31.5 -26.5 82.5 -26.5q30 0 54.5 8q24.5 8 44.5 17.5q20 9.5 36.5 17.5q16.5 8 30.5 8q29 0 46 -17q17 -17 17 -44q0 -23 -18 -46q-18 -23 -49.5 -41q-31.5 -18 -75 -29.5q-43.5 -11.5 -94.5 -11.5q-58 0 -108 21q-50 21 -86.5 58q-36.5 37 -57.5 88.5q-21 51.5 -21 111.5q0 60 20 111.5q20 51.5 55.5 89q35.5 37.5 84 58.5q48.5 21 105.5 21q57 0 104 -20.5q47 -20.5 81 -56q34 -35.5 53 -82.5q19 -47 19 -100q0 -20 -4.5 -32.5q-4.5 -12.5 -14.5 -19.5q-10 -7 -24.5 -9.5q-14.5 -2.5 -34.5 -2.5zM394 325q-3 42 -33 67.5q-30 25.5 -70 25.5q-40 0 -68.5 -24.5q-28.5 -24.5 -36.5 -68.5z" />
<glyph unicode="&#102;" horiz-adv-x="370" d="M266 763q49 0 76.5 -21.5q27.5 -21.5 27.5 -57.5q0 -33 -19 -46.5q-19 -13.5 -53 -18.5q-12 -2 -19.5 -5q-7.5 -3 -11.5 -9.5q-4 -6.5 -5.5 -17q-1.5 -10.5 -1.5 -27.5v-38h26q48 0 74 -17.5q26 -17.5 26 -49.5q0 -68 -100 -68h-26v-279q0 -58 -18.5 -86.5q-18.5 -28.5 -59.5 -28.5q-79 0 -79 115v279h-6q-42 0 -65.5 18.5q-23.5 18.5 -23.5 49.5q0 67 95 67l0 30q0 104 42.5 157.5t120.5 53.5z" />
<glyph unicode="&#103;" horiz-adv-x="599" d="M290 402q-22 0 -40.5 -10q-18.5 -10 -32.5 -28q-14 -18 -22 -43q-8 -25 -8 -55q0 -61 29 -95q29 -34 74 -34q45 0 75 34.5q30 34.5 30 94.5q0 30 -8.5 55q-8.5 25 -22.5 43q-14 18 -33 28q-19 10 -41 10zt0 0zM396 489q14 25 33 37.5q19 12.5 37 12.5q79 0 79 -114v-317q0 -79 -13.5 -142q-13.5 -63 -45.5 -106.5q-32 -43.5 -85 -66.5q-53 -23 -133 -23q-54 0 -97 9.5q-43 9.5 -72.5 25.5q-29.5 16 -45.5 37.5q-16 21.5 -16 44.5q0 30 19.5 49.5q19.5 19.5 48.5 19.5q15 0 31.5 -6.5q16.5 -6.5 36.5 -14.5q20 -8 45 -14.5q25 -6.5 56 -6.5q58 0 89.5 34q31.5 34 31.5 99v19q-51 -73 -142 -73q-47 0 -88 20q-41 20 -72.5 56.5q-31.5 36.5 -49.5 86.5q-18 50 -18 110q0 60 19.5 111q19.5 51 52.5 88.5q33 37.5 77.5 59q44.5 21.5 94.5 21.5q79 0 127 -57z" />
<glyph unicode="&#104;" horiz-adv-x="592" d="M212 493q26 27 59.5 36.5q33.5 9.5 74.5 9.5q93 0 142.5 -50.5q49.5 -50.5 49.5 -153.5v-226q0 -58 -18.5 -87q-18.5 -29 -59.5 -29q-79 0 -79 115v178q0 63 -18 90.5q-18 27.5 -66 27.5q-45 0 -65.5 -27.5q-20.5 -27.5 -20.5 -87.5v-180q0 -58 -18.5 -87q-18.5 -29 -59.5 -29q-79 0 -79 115v540q0 115 79 115q78 0 78 -115l0 -155z" />
<glyph unicode="&#105;" horiz-adv-x="275" d="M138 539q78 0 78 -114v-317q0 -58 -18.5 -86.5q-18.5 -28.5 -59.5 -28.5q-79 0 -79 115v317q0 114 79 114zt0 0zM138 764q38 0 64 -26q26 -26 26 -64q0 -19 -7 -35.5q-7 -16.5 -19 -29q-12 -12.5 -28.5 -19.5q-16.5 -7 -35.5 -7q-38 0 -64.5 26.5q-26.5 26.5 -26.5 64.5q0 38 26.5 64t64.5 26z" />
<glyph unicode="&#106;" horiz-adv-x="275" d="M138 539q78 0 78 -114v-530q0 -58 -18.5 -86.5q-18.5 -28.5 -59.5 -28.5q-79 0 -79 115v530q0 114 79 114zt0 0zM47 674q0 38 26.5 64q26.5 26 64.5 26q38 0 64 -26q26 -26 26 -64q0 -19 -7 -35.5q-7 -16.5 -19 -29q-12 -12.5 -28.5 -19.5q-16.5 -7 -35.5 -7q-38 0 -64.5 26.5t-26.5 64.5z" />
<glyph unicode="&#107;" horiz-adv-x="525" d="M133 763q78 0 78 -115v-290l135 139q22 23 41 32.5q19 9.5 40 9.5q28 0 47 -17.5q19 -17.5 19 -42.5q0 -19 -11 -39q-11 -20 -29 -37l-106 -98l147 -173q16 -19 23.5 -37q7.5 -18 7.5 -39q0 -27 -21 -45q-21 -18 -53 -18q-23 0 -43 11q-20 11 -39 36l-158 210v-142q0 -58 -18.5 -86.5q-18.5 -28.5 -59.5 -28.5q-79 0 -79 115v540q0 115 79 115z" />
<glyph unicode="&#108;" horiz-adv-x="275" d="M138 763q78 0 78 -114v-541q0 -58 -18.5 -86.5q-18.5 -28.5 -59.5 -28.5q-79 0 -79 115v541q0 114 79 114z" />
<glyph unicode="&#109;" horiz-adv-x="883" d="M134 539q47 0 75 -50q25 27 55.5 38.5q30.5 11.5 70.5 11.5q103 0 157 -72q36 40 73 56q37 16 86 16q82 0 130 -51q48 -51 48 -154v-226q0 -115 -79 -115q-41 0 -59.5 28.5q-18.5 28.5 -18.5 86.5v178q0 60 -17 89q-17 29 -55 29q-43 0 -61.5 -28q-18.5 -28 -18.5 -88v-180q0 -115 -79 -115q-41 0 -59.5 28.5q-18.5 28.5 -18.5 86.5v178q0 60 -17 89q-17 29 -55 29q-43 0 -61.5 -28q-18.5 -28 -18.5 -88v-180q0 -115 -79 -115q-41 0 -59.5 28.5q-18.5 28.5 -18.5 86.5v317q0 114 80 114z" />
<glyph unicode="&#110;" horiz-adv-x="592" d="M133 539q47 0 75 -50q26 29 59 39.5q33 10.5 79 10.5q93 0 142.5 -50.5q49.5 -50.5 49.5 -153.5v-226q0 -58 -18.5 -87q-18.5 -29 -59.5 -29q-79 0 -79 115v178q0 63 -18 90.5q-18 27.5 -66 27.5q-45 0 -65.5 -27.5q-20.5 -27.5 -20.5 -87.5v-180q0 -58 -18.5 -87q-18.5 -29 -59.5 -29q-79 0 -79 115v317q0 114 79 114z" />
<glyph unicode="&#111;" horiz-adv-x="583" d="M292 546q58 0 107 -20.5q49 -20.5 84.5 -58q35.5 -37.5 55 -89q19.5 -51.5 19.5 -112.5q0 -62 -19.5 -113q-19.5 -51 -55 -88q-35.5 -37 -84.5 -57.5q-49 -20.5 -107 -20.5q-58 0 -107 20.5q-49 20.5 -84.5 57.5q-35.5 37 -55.5 88q-20 51 -20 113q0 61 20 112.5q20 51.5 55.5 89q35.5 37.5 84.5 58q49 20.5 107 20.5zt0 0zM292 402q-44 0 -74.5 -36.5q-30.5 -36.5 -30.5 -98.5q0 -63 30 -99.5q30 -36.5 75 -36.5q45 0 74.5 37.5q29.5 37.5 29.5 99.5q0 30 -8 54.5q-8 24.5 -22 42.5q-14 18 -33 27.5t-41 9.5z" />
<glyph unicode="&#112;" horiz-adv-x="603" d="M208 493q48 53 130 53q49 0 93 -20.5q44 -20.5 76.5 -57q32.5 -36.5 51.5 -87q19 -50.5 19 -111.5q0 -60 -19.5 -111.5q-19.5 -51.5 -52.5 -89.5q-33 -38 -77 -60q-44 -22 -93 -22q-70 0 -125 47l0 -135q0 -58 -18.5 -86.5q-18.5 -28.5 -59.5 -28.5q-79 0 -79 115v530q0 58 19 84q19 26 60 26q23 0 42 -10q19 -10 33 -36zt0 0zM313 402q-44 0 -73 -36.5q-29 -36.5 -29 -98.5q0 -63 28.5 -99.5q28.5 -36.5 73.5 -36.5q45 0 74 37.5q29 37.5 29 99.5q0 30 -8 54.5q-8 24.5 -22 42.5q-14 18 -32.5 27.5t-40.5 9.5z" />
<glyph unicode="&#113;" horiz-adv-x="603" d="M396 493q14 25 33 35.5q19 10.5 42 10.5q41 0 59.5 -26q18.5 -26 18.5 -84v-530q0 -115 -78 -115q-79 0 -79 115v134q-53 -46 -125 -46q-50 0 -94 22q-44 22 -77 60q-33 38 -52 89.5q-19 51.5 -19 111.5q0 61 19 111.5q19 50.5 51.5 87q32.5 36.5 76 57q43.5 20.5 93.5 20.5q83 0 131 -53zt0 0zM291 402q-22 0 -41 -9.5q-19 -9.5 -33 -27.5q-14 -18 -22 -42.5q-8 -24.5 -8 -54.5q0 -62 29 -99.5q29 -37.5 74 -37.5q45 0 73.5 37q28.5 37 28.5 100q0 62 -28.5 98t-72.5 36z" />
<glyph unicode="&#114;" horiz-adv-x="395" d="M208 489q25 26 52 41.5q27 15.5 55 15.5q16 0 31 -7q15 -7 25.5 -18.5q10.5 -11.5 17 -26q6.5 -14.5 6.5 -30.5q0 -24 -12 -38q-12 -14 -31 -23.5q-19 -9.5 -43 -17.5q-24 -8 -48 -19q-17 -8 -26.5 -16q-9.5 -8 -15 -18.5q-5.5 -10.5 -7 -25q-1.5 -14.5 -1.5 -34.5v-164q0 -58 -18.5 -86.5q-18.5 -28.5 -59.5 -28.5q-79 0 -79 115v317q0 114 79 114q47 0 75 -50z" />
<glyph unicode="&#115;" horiz-adv-x="456" d="M236 546q41 0 75.5 -9q34.5 -9 59 -24q24.5 -15 38 -34q13.5 -19 13.5 -40q0 -28 -19 -47q-19 -19 -46 -19q-14 0 -29.5 6q-15.5 6 -32 13q-16.5 7 -33 13q-16.5 6 -32.5 6q-17 0 -26.5 -8q-9.5 -8 -9.5 -19q0 -11 7.5 -19q7.5 -8 21.5 -14.5q14 -6.5 34 -14q20 -7.5 45 -18.5q66 -29 97.5 -64q31.5 -35 31.5 -89q0 -38 -15.5 -70.5q-15.5 -32.5 -43 -56.5q-27.5 -24 -66.5 -37.5q-39 -13.5 -86 -13.5q-44 0 -80 8.5q-36 8.5 -61.5 23.5q-25.5 15 -39.5 35.5q-14 20.5 -14 44.5q0 30 17.5 49.5q17.5 19.5 42.5 19.5q21 0 39 -7q18 -7 35 -16q17 -9 34.5 -16q17.5 -7 38.5 -7q20 0 32 12q12 12 12 25q0 14 -20 27.5q-20 13.5 -67 30.5q-78 29 -114 70.5q-36 41.5 -36 90.5q0 35 14.5 66q14.5 31 40.5 53.5q26 22.5 62 35.5t80 13z" />
<glyph unicode="&#116;" horiz-adv-x="383" d="M179 709q78 0 78 -114v-73h21q48 0 74 -17.5q26 -17.5 26 -49.5q0 -68 -100 -68h-21v-279q0 -58 -18.5 -86.5q-18.5 -28.5 -59.5 -28.5q-79 0 -79 115v279h-6q-42 0 -65.5 18.5q-23.5 18.5 -23.5 49.5q0 67 95 67l0 73q0 114 79 114z" />
<glyph unicode="&#117;" horiz-adv-x="584" d="M133 539q78 0 78 -114v-178q0 -56 16.5 -86q16.5 -30 64.5 -30q48 0 64.5 30q16.5 30 16.5 86v178q0 114 79 114q41 0 59.5 -28q18.5 -28 18.5 -86v-210q0 -114 -61.5 -171q-61.5 -57 -176.5 -57q-115 0 -176.5 57q-61.5 57 -61.5 171v210q0 114 79 114z" />
<glyph unicode="&#118;" horiz-adv-x="476" d="M76 539q31 0 49.5 -19q18.5 -19 31.5 -58l86 -274l85 284q20 67 74 67q33 0 53.5 -22q20.5 -22 20.5 -57q0 -8 -3 -22q-3 -14 -9 -30l-133 -344q-14 -38 -33 -57.5q-19 -19.5 -57 -19.5q-40 0 -59.5 20q-19.5 20 -35.5 62l-132 337q-6 16 -10 31q-4 15 -4 24q0 33 22 55.5t54 22.5z" />
<glyph unicode="&#119;" horiz-adv-x="763" d="M76 539q59 0 81 -77l83 -288l67 289q8 35 27 55.5q19 20.5 46 20.5q30 0 50.5 -21q20.5 -21 29.5 -57l72 -283l83 294q19 67 74 67q33 0 53.5 -22q20.5 -22 20.5 -57q0 -10 -3.5 -23.5q-3.5 -13.5 -8.5 -28.5l-121 -344q-14 -40 -34.5 -58.5q-20.5 -18.5 -55.5 -18.5q-37 0 -60.5 21.5q-23.5 21.5 -34.5 60.5l-65 251l-61 -256q-8 -35 -31.5 -56q-23.5 -21 -58.5 -21q-38 0 -58.5 19q-20.5 19 -36.5 63l-125 349q-9 25 -9 43q0 33 22 55.5t54 22.5z" />
<glyph unicode="&#120;" horiz-adv-x="513" d="M98 539q36 0 65 -33l96 -111l88 108q14 17 31.5 26.5q17.5 9.5 32.5 9.5q33 0 57 -22.5q24 -22.5 24 -54.5q0 -30 -35 -68l-104 -111l123 -139q15 -17 26 -34q11 -17 11 -44q0 -29 -21 -51q-21 -22 -51 -22q-22 0 -38.5 10.5q-16.5 10.5 -33.5 30.5l-113 134l-112 -134q-17 -20 -32.5 -30.5q-15.5 -10.5 -35.5 -10.5q-30 0 -53 22.5q-23 22.5 -23 55.5q0 23 9 37.5q9 14.5 24 31.5l131 144l-110 112q-30 32 -30 64q0 15 6 29.5q6 14.5 16 25.5q10 11 23.5 17.5t28.5 6.5z" />
<glyph unicode="&#121;" horiz-adv-x="500" d="M82 539q33 0 49.5 -19.5q16.5 -19.5 30.5 -56.5l89 -238l97 251q13 32 29 47.5q16 15.5 40 15.5q36 0 57 -20q21 -20 21 -55q0 -11 -3 -25q-3 -14 -10 -30l-240 -570q-13 -31 -28 -47.5q-15 -16.5 -41 -16.5q-37 0 -57.5 20.5q-20.5 20.5 -20.5 55.5q0 25 13 54l65 141l-159 371q-5 11 -7 22.5q-2 11.5 -2 21.5q0 33 22.5 55.5t54.5 22.5z" />
<glyph unicode="&#122;" horiz-adv-x="480" d="M376 144q48 0 73.5 -19q25.5 -19 25.5 -53q0 -72 -100 -72h-287q-42 0 -62.5 9.5q-20.5 9.5 -20.5 39.5q0 28 24 60l216 279h-136q-48 0 -73.5 20q-25.5 20 -25.5 53q0 71 100 71h253q48 0 73.5 -8q25.5 -8 25.5 -40q0 -15 -8 -31.5q-8 -16.5 -24 -37.5l-210 -271l156 0z" />
<glyph unicode="&#123;" horiz-adv-x="500" d="M223 260q31 -7 50.5 -18.5q19.5 -11.5 31 -28.5q11.5 -17 15.5 -41.5q4 -24.5 4 -57.5v-118q0 -27 3 -45.5q3 -18.5 12 -30q9 -11.5 25.5 -16q16.5 -4.5 43.5 -4.5q32 0 51.5 -12.5q19.5 -12.5 19.5 -38.5q0 -26 -21 -38.5q-21 -12.5 -49 -12.5q-57 0 -96 7q-39 7 -63 25q-24 18 -34 50.5q-10 32.5 -10 83.5v123q0 48 -11 72q-11 24 -37 39q-12 7 -26 11q-14 4 -26 10q-12 6 -20.5 15q-8.5 9 -8.5 26q0 17 8.5 26q8.5 9 20.5 15q12 6 26 10q14 4 26 11q26 15 37 39q11 24 11 72v123q0 51 10 83.5q10 32.5 34 50.5q24 18 63 25q39 7 96 7q28 0 49 -12.5q21 -12.5 21 -38.5q0 -26 -19.5 -38.5q-19.5 -12.5 -51.5 -12.5q-27 0 -43.5 -4.5q-16.5 -4.5 -25.5 -16q-9 -11.5 -12 -30q-3 -18.5 -3 -45.5v-118q0 -33 -4 -57.5q-4 -24.5 -15.5 -41.5q-11.5 -17 -31 -28.5t-50.5 -18.5z" />
<glyph unicode="&#124;" horiz-adv-x="274" d="M137 764q23 0 35 -13q12 -13 12 -34v-906q0 -21 -13.5 -34q-13.5 -13 -33.5 -13q-23 0 -35 13q-12 13 -12 34v906q0 21 13.5 34t33.5 13z" />
<glyph unicode="&#125;" horiz-adv-x="500" d="M278 260q-31 7 -50.5 18.5q-19.5 11.5 -31 28.5q-11.5 17 -15.5 41.5q-4 24.5 -4 57.5v118q0 27 -3 45.5q-3 18.5 -12 30q-9 11.5 -25.5 16q-16.5 4.5 -43.5 4.5q-32 0 -51.5 12.5q-19.5 12.5 -19.5 38.5q0 26 21 38.5q21 12.5 49 12.5q57 0 96 -7q39 -7 63 -25q24 -18 34 -50.5q10 -32.5 10 -83.5v-123q0 -48 11 -72q11 -24 37 -39q12 -7 26 -11q14 -4 26 -10q12 -6 20.5 -15q8.5 -9 8.5 -26q0 -17 -8.5 -26q-8.5 -9 -20.5 -15q-12 -6 -26 -10q-14 -4 -26 -11q-26 -15 -37 -39q-11 -24 -11 -72v-123q0 -51 -10 -83.5q-10 -32.5 -34 -50.5q-24 -18 -63 -25q-39 -7 -96 -7q-28 0 -49 12.5q-21 12.5 -21 38.5q0 26 19.5 38.5q19.5 12.5 51.5 12.5q27 0 43.5 4.5q16.5 4.5 25.5 16q9 11.5 12 30q3 18.5 3 45.5v118q0 33 4 57.5q4 24.5 15.5 41.5q11.5 17 31 28.5t50.5 18.5z" />
<glyph unicode="&#126;" horiz-adv-x="833" d="M106 212q-17 0 -27 16.5q-10 16.5 -10 40.5q0 18 20.5 38q20.5 20 51 37q30.5 17 67 28q36.5 11 69.5 11q48 0 84.5 -10.5q36.5 -10.5 69 -22.5q32.5 -12 63.5 -22.5q31 -10.5 69 -10.5q31 0 58 11q27 11 48.5 24q21.5 13 37.5 24q16 11 25 11q17 0 27 -16.5q10 -16.5 10 -40.5q0 -18 -20 -38q-20 -20 -51 -37.5q-31 -17.5 -67 -28.5q-36 -11 -69 -11q-37 0 -71.5 10.5q-34.5 10.5 -69 22.5q-34.5 12 -70.5 22.5q-36 10.5 -76 10.5q-31 0 -58 -11q-27 -11 -48.5 -23.5q-21.5 -12.5 -37.5 -23.5t-25 -11z" />
<glyph unicode="&#160;" horiz-adv-x="324" />
<glyph unicode="&#164;" horiz-adv-x="606" d="M309 592q-34 0 -63.5 -12q-29.5 -12 -51.5 -34q-22 -22 -35 -52.5q-13 -30.5 -13 -67.5q0 -33 11 -63.5q11 -30.5 32 -54q21 -23.5 51.5 -37.5q30.5 -14 68.5 -14q33 0 62 13q29 13 50.5 36q21.5 23 34 54q12.5 31 12.5 66q0 36 -12.5 66.5q-12.5 30.5 -34 52.5q-21.5 22 -50.5 34.5q-29 12.5 -62 12.5zt0 0zM94 673q12 0 23 -12l39 -41q29 27 70 40q41 13 83 13q39 0 80 -12.5q41 -12.5 68 -40.5l45 45q7 8 19 8q12 0 23 -12q11 -12 11 -25q0 -12 -10 -22l-39 -39q25 -28 37 -67q12 -39 12 -84q0 -90 -49 -148l39 -39q10 -9 10 -25q0 -14 -11.5 -25q-11.5 -11 -24.5 -11q-9 0 -29 20l-33 35q-27 -26 -64.5 -40.5q-37.5 -14.5 -85.5 -14.5q-47 0 -84 14.5q-37 14.5 -65 40.5l-45 -43q-12 -12 -21 -12q-11 0 -22 12q-11 12 -11 26q0 7 4 13.5q4 6.5 7 9.5l37 39q-23 29 -35.5 65.5q-12.5 36.5 -12.5 81.5q0 39 12 81q12 42 36 71l-37 39q-5 5 -8 11q-3 6 -3 12q0 14 10.5 25t24.5 11z" />
<glyph unicode="&#166;" horiz-adv-x="274" d="M137 711q23 0 35 -13q12 -13 12 -34v-226q0 -21 -13.5 -34q-13.5 -13 -33.5 -13q-23 0 -35 13q-12 13 -12 34v226q0 21 13.5 34q13.5 13 33.5 13zt0 0zM137 268q23 0 35 -13q12 -13 12 -34v-226q0 -21 -13.5 -34q-13.5 -13 -33.5 -13q-23 0 -35 13q-12 13 -12 34v226q0 21 13.5 34t33.5 13z" />
<glyph unicode="&#167;" horiz-adv-x="541" d="M106 441q-49 48 -49 112q0 39 14.5 71.5q14.5 32.5 41 56.5q26.5 24 64 37.5q37.5 13.5 84.5 13.5q51 0 91.5 -13q40.5 -13 68 -34q27.5 -21 42.5 -48.5q15 -27.5 15 -56.5q0 -31 -19 -49.5q-19 -18.5 -45 -18.5q-23 0 -35.5 13q-12.5 13 -26.5 37q-30 53 -87 53q-31 0 -49 -14.5q-18 -14.5 -18 -35.5q0 -15 9 -26q9 -11 26.5 -22q17.5 -11 43 -23.5q25.5 -12.5 59.5 -28.5q45 -22 80 -42.5q35 -20.5 59.5 -44q24.5 -23.5 37.5 -52q13 -28.5 13 -65.5q0 -46 -23 -86q-23 -40 -67 -66q26 -26 37 -53q11 -27 11 -62q0 -38 -14.5 -70q-14.5 -32 -42 -55.5q-27.5 -23.5 -66.5 -36.5q-39 -13 -88 -13q-50 0 -90.5 12.5q-40.5 12.5 -69.5 33.5q-29 21 -45 48.5q-16 27.5 -16 56.5q0 30 20.5 49q20.5 19 46.5 19q23 0 36 -13.5q13 -13.5 27 -36.5q30 -52 91 -52q34 0 52 14q18 14 18 36q0 15 -9 26q-9 11 -26 21.5q-17 10.5 -42.5 22.5q-25.5 12 -59.5 29q-45 22 -80 42.5q-35 20.5 -60 44q-25 23.5 -38 52q-13 28.5 -13 66.5q0 46 24 87q24 41 67 64zt0 0zM346 175q43 23 43 68q0 14 -10 28q-10 14 -32.5 29.5q-22.5 15.5 -60 33.5q-37.5 18 -91.5 42q-43 -27 -43 -68q0 -32 48 -60.5t146 -72.5z" />
<glyph unicode="&#171;" horiz-adv-x="509" d="M212 455q21 0 32.5 -10q11.5 -10 11.5 -26q0 -14 -6.5 -26.5q-6.5 -12.5 -26.5 -36.5l-83 -99l83 -99q20 -24 26.5 -36.5q6.5 -12.5 6.5 -26.5q0 -16 -11.5 -26q-11.5 -10 -32.5 -10q-17 0 -36 13q-19 13 -35 33l-126 152l126 152q16 20 35 33q19 13 36 13zt0 0zM445 455q21 0 32.5 -10q11.5 -10 11.5 -26q0 -14 -6.5 -26.5q-6.5 -12.5 -26.5 -36.5l-83 -99l83 -99q20 -24 26.5 -36.5q6.5 -12.5 6.5 -26.5q0 -16 -11.5 -26q-11.5 -10 -32.5 -10q-17 0 -36 13q-19 13 -35 33l-126 152l126 152q16 20 35 33t36 13z" />
<glyph unicode="&#172;" horiz-adv-x="468" d="M378 329q28 0 49 -12.5q21 -12.5 21 -38.5v-151q0 -28 -12.5 -49q-12.5 -21 -38.5 -21q-26 0 -38.5 19.5q-12.5 19.5 -12.5 51.5v99h-251q-28 0 -49.5 12q-21.5 12 -21.5 39q0 26 21 38.5q21 12.5 50 12.5z" />
<glyph unicode="&#173;" horiz-adv-x="428" d="M316 346q38 0 58 -18.5q20 -18.5 20 -50.5q0 -66 -79 -66h-203q-38 0 -58 17.5q-20 17.5 -20 49.5q0 32 20.5 50q20.5 18 58.5 18z" />
<glyph unicode="&#174;" horiz-adv-x="833" d="M416 722q75 0 141.5 -27.5q66.5 -27.5 119.5 -81.5q51 -51 77 -116.5q26 -65.5 26 -138.5q0 -75 -27.5 -140.5q-27.5 -65.5 -79.5 -116.5q-54 -52 -120 -79q-66 -27 -137 -27q-73 0 -139 28q-66 28 -119 82q-51 52 -77.5 117q-26.5 65 -26.5 136q0 99 53 189q49 83 129.5 129q80.5 46 179.5 46zt0 0zM417 662q-125 0 -211 -86q-45 -45 -68.5 -101q-23.5 -56 -23.5 -116q0 -60 22 -114.5q22 -54.5 65 -97.5q44 -45 99.5 -68.5q55.5 -23.5 115.5 -23.5q60 0 115 23q55 23 100 66q43 42 66 96q23 54 23 113q0 130 -86 218q-89 91 -217 91zt0 0zM424 567q172 0 172 -116q0 -40 -23 -68q-23 -28 -65 -39l90 -180h-109l-77 165h-48v-165h-98v403zM364 388h48q42 0 62.5 13.5q20.5 13.5 20.5 43.5q0 32 -21.5 46q-21.5 14 -66.5 14l-43 0z" />
<glyph unicode="&#175;" horiz-adv-x="500" d="M154 610q-29 0 -48 16q-17 19 -17 46q0 28 18 45q18 18 47 18h192q28 0 48 -17q17 -15 17 -45q0 -27 -18 -46q-19 -17 -47 -17l-192 0z" />
<glyph unicode="&#176;" horiz-adv-x="366" d="M183 652q-38 0 -61.5 -25.5q-23.5 -25.5 -23.5 -59.5q0 -36 25 -61q25 -25 60 -25q18 0 33.5 7q15.5 7 27 18.5q11.5 11.5 18 27q6.5 15.5 6.5 33.5q0 33 -23.5 59q-23.5 26 -61.5 26zt0 0zM183 715q32 0 59 -12q27 -12 47 -32.5q20 -20.5 31 -47.5q11 -27 11 -57q0 -30 -11.5 -57q-11.5 -27 -31.5 -47q-20 -20 -47.5 -32q-27.5 -12 -58.5 -12q-31 0 -57.5 11.5q-26.5 11.5 -46.5 31.5q-20 20 -31.5 47q-11.5 27 -11.5 58q0 30 11 57q11 27 31 47.5q20 20.5 47 32.5t59 12z" />
<glyph unicode="&#177;" horiz-adv-x="830" d="M665 102q28 0 49 -12.5q21 -12.5 21 -38.5q0 -26 -19.5 -38.5q-19.5 -12.5 -51.5 -12.5h-498q-28 0 -49.5 12q-21.5 12 -21.5 39q0 26 21 39q21 13 50 12zM665 482q28 0 49 -12.5q21 -12.5 21 -38.5q0 -26 -19.5 -38.5q-19.5 -12.5 -51.5 -12.5h-198v-151q0 -28 -12.5 -49q-12.5 -21 -38.5 -21q-26 0 -38.5 19.5q-12.5 19.5 -12.5 51.5v150h-198q-28 0 -49.5 12q-21.5 12 -21.5 39q0 26 21 38.5q21 12.5 50 12.5h198v150q0 28 12 49.5q12 21.5 39 21.5q26 0 38.5 -21q12.5 -21 12.5 -50l0 -150z" />
<glyph unicode="&#180;" horiz-adv-x="500" d="M316 808q26 0 44.5 -17q18.5 -17 18.5 -43q0 -16 -7.5 -29.5q-7.5 -13.5 -18.5 -26.5l-76 -84q-28 -31 -54 -31q-24 0 -39 14.5q-15 14.5 -15 40.5q0 12 4.5 22.5q4.5 10.5 12.5 21.5l73 100q22 32 57 32z" />
<glyph unicode="&#182;" horiz-adv-x="520" d="M301 647v-808q0 -28 -12.5 -49q-12.5 -21 -38.5 -21q-26 0 -38.5 19.5q-12.5 19.5 -12.5 51.5v543q-38 0 -71 12q-33 12 -57 34q-24 22 -37.5 53.5q-13.5 31.5 -13.5 69.5q0 40 15 72q15 32 40.5 53.5q25.5 21.5 60.5 33q35 11.5 75 11.5h192q38 0 57 -19.5q19 -19.5 19 -63.5v-800q0 -28 -12.5 -49q-12.5 -21 -38.5 -21q-26 0 -38.5 19.5q-12.5 19.5 -12.5 51.5l0 807z" />
<glyph unicode="&#183;" horiz-adv-x="324" d="M162 446q19 0 35.5 -7.5q16.5 -7.5 29 -20q12.5 -12.5 19.5 -29q7 -16.5 7 -34.5q0 -40 -27 -65.5q-27 -25.5 -64 -25.5q-36 0 -63.5 24.5q-27.5 24.5 -27.5 66.5q0 19 7.5 35.5q7.5 16.5 20 29q12.5 12.5 29 19.5t34.5 7z" />
<glyph unicode="&#187;" horiz-adv-x="509" d="M297 455q17 0 36 -13q19 -13 35 -33l126 -152l-126 -152q-16 -20 -35 -33q-19 -13 -36 -13q-21 0 -32.5 10q-11.5 10 -11.5 26q0 14 6.5 26.5q6.5 12.5 26.5 36.5l83 99l-83 99q-20 24 -26.5 36.5q-6.5 12.5 -6.5 26.5q0 16 11.5 26q11.5 10 32.5 10zt0 0zM64 455q17 0 36 -13q19 -13 35 -33l126 -152l-126 -152q-16 -20 -35 -33q-19 -13 -36 -13q-21 0 -32.5 10q-11.5 10 -11.5 26q0 14 6.5 26.5q6.5 12.5 26.5 36.5l83 99l-83 99q-20 24 -26.5 36.5q-6.5 12.5 -6.5 26.5q0 16 11.5 26t32.5 10z" />
<glyph unicode="&#710;" horiz-adv-x="500" d="M163 600q-26 -15 -46 -15q-20 0 -33.5 14q-13.5 14 -13.5 37q0 18 7.5 30q7.5 12 22.5 24l109 85q21 16 41 16q20 0 41 -16l109 -85q15 -12 22.5 -24.5q7.5 -12.5 7.5 -29.5q0 -23 -13.5 -37q-13.5 -14 -33.5 -14q-21 0 -46 15l-87 53z" />
<glyph unicode="&#713;" horiz-adv-x="500" d="M154 610q-29 0 -48 16q-17 19 -17 46q0 28 18 45q18 18 47 18h192q28 0 48 -17q17 -15 17 -45q0 -27 -18 -46q-19 -17 -47 -17l-192 0z" />
<glyph unicode="&#732;" horiz-adv-x="500" d="M215 619q-16 0 -35 -9q-10 -4 -16.5 -5.5q-6.5 -1.5 -11.5 -2.5q-22 0 -32 14q-12 13 -12 39q0 36 24 62q25 25 60 25q18 0 47 -10q30 -8 45 -9q14 0 35 9q19 9 29 9q18 0 32 -15q12 -15 12 -39q0 -37 -24 -62q-24 -25 -60 -25q-17 0 -47 9q-29 10 -46 10z" />
<glyph unicode="&#894;" horiz-adv-x="252" d="M137 478q19 0 35.5 -7.5q16.5 -7.5 29 -20q12.5 -12.5 19.5 -29q7 -16.5 7 -34.5q0 -40 -27 -65.5q-27 -25.5 -64 -25.5q-36 0 -63.5 24.5q-27.5 24.5 -27.5 66.5q0 19 7.5 35.5q7.5 16.5 20 29q12.5 12.5 29 19.5q16.5 7 34.5 7zt0 0zM151 162q27 0 46.5 -17.5q19.5 -17.5 19.5 -44.5q0 -21 -16 -51l-79 -144q-30 -55 -70 -55q-26 0 -46 18q-20 18 -20 45q0 22 16 50l79 144q15 28 31.5 41.5t38.5 13.5z" />
<glyph unicode="&#1025;" horiz-adv-x="505" d="M225 433h114q115 0 115 -75q0 -75 -115 -75h-114v-133h137q115 0 115 -75q0 -75 -115 -75h-189q-32 0 -53.5 5q-21.5 5 -34 17q-12.5 12 -17.5 31.5q-5 19.5 -5 48.5v495q0 30 5 51.5q5 21.5 17.5 35.5q12.5 14 34 20.5q21.5 6.5 55.5 6.5h182q115 0 115 -76q0 -74 -115 -74h-132zM170 939q30 0 51.5 -21.5q21.5 -21.5 21.5 -51.5q0 -30 -21.5 -51q-21.5 -21 -51.5 -21q-30 0 -51 21q-21 21 -21 51q0 30 21 51.5q21 21.5 51 21.5zt0 0zM373 939q30 0 51.5 -21.5q21.5 -21.5 21.5 -51.5q0 -30 -21.5 -51q-21.5 -21 -51.5 -21q-30 0 -51 21q-21 21 -21 51q0 30 21 51.5t51 21.5z" />
<glyph unicode="&#1026;" horiz-adv-x="760" d="M337 408q27 11 59 19q32 8 63 8q49 0 93.5 -11.5q44.5 -11.5 78.5 -37q34 -25.5 54 -66.5q20 -41 20 -101q0 -117 -60.5 -168q-60.5 -51 -166.5 -51q-43 0 -72.5 15q-29.5 15 -29.5 53q0 37 23 52q23 15 74 15q70 0 70 83q0 82 -93 82q-33 0 -60 -7.5q-27 -7.5 -53 -23.5l0 -163q0 -115 -81 -115q-81 0 -81 115v455h-60q-115 0 -115 74q0 76 115 76h336q115 0 115 -76q0 -74 -115 -74l-114 0z" />
<glyph unicode="&#1027;" horiz-adv-x="490" d="M357 711q115 0 115 -76q0 -74 -115 -74h-132v-455q0 -115 -81 -115q-81 0 -81 115v491q0 30 5 51.5q5 21.5 17.5 35.5q12.5 14 34 20.5q21.5 6.5 55.5 6.5zM352 1015q26 0 44.5 -17q18.5 -17 18.5 -43q0 -16 -7.5 -29.5q-7.5 -13.5 -18.5 -26.5l-76 -84q-28 -31 -54 -31q-24 0 -39 14.5q-15 14.5 -15 40.5q0 12 4.5 22.5q4.5 10.5 12.5 21.5l73 100q22 32 57 32z" />
<glyph unicode="&#1028;" horiz-adv-x="632" d="M380 732q34 0 71.5 -7.5q37.5 -7.5 69 -21.5q31.5 -14 52 -36q20.5 -22 20.5 -50q0 -29 -21 -48q-21 -19 -49 -19q-22 0 -34 4q-12 4 -24.5 9.5q-12.5 5.5 -31 9.5q-18.5 4 -52.5 4q-30 0 -58 -10q-28 -10 -50.5 -29q-22.5 -19 -37.5 -45q-15 -26 -19 -57l172 0q57 0 85.5 -18q28.5 -18 28.5 -58q0 -37 -27.5 -55.5q-27.5 -18.5 -86.5 -18.5h-175q14 -69 59 -110.5q45 -41.5 114 -41.5q19 0 36 6q17 6 34 13.5q17 7.5 35 13.5q18 6 38 6q29 0 51 -21q22 -21 22 -50q0 -29 -17 -51.5q-17 -22.5 -47 -38.5q-30 -16 -71 -24.5q-41 -8.5 -89 -8.5q-78 0 -142 27q-64 27 -110 76.5q-46 49.5 -71 118.5q-25 69 -25 154q0 82 26 151.5q26 69.5 72.5 119.5q46.5 50 110.5 78t141 28z" />
<glyph unicode="&#1029;" horiz-adv-x="566" d="M296 732q44 0 80 -8.5q36 -8.5 61.5 -23.5q25.5 -15 39 -34.5q13.5 -19.5 13.5 -40.5q0 -32 -19 -50.5q-19 -18.5 -54 -18.5q-15 0 -30.5 4q-15.5 4 -31.5 9q-16 5 -32.5 9q-16.5 4 -32.5 4q-38 0 -58.5 -18q-20.5 -18 -20.5 -44q0 -19 9 -31q9 -12 25.5 -20q16.5 -8 40.5 -15.5q24 -7.5 54 -17.5q100 -33 148 -84q48 -51 48 -132q0 -52 -19 -96q-19 -44 -55 -76.5q-36 -32.5 -87 -50.5q-51 -18 -115 -18q-50 0 -92 10q-42 10 -73 26.5q-31 16.5 -48 37q-17 20.5 -17 42.5q0 32 21 52.5q21 20.5 59 20.5q16 0 35 -6q19 -6 40.5 -13.5q21.5 -7.5 46 -13.5q24.5 -6 51.5 -6q34 0 57 22q23 22 23 54q0 21 -8.5 36q-8.5 15 -24.5 26q-16 11 -39 19q-23 8 -52 17q-51 15 -89 33q-38 18 -63 41.5q-25 23.5 -37 54.5q-12 31 -12 73q0 48 18 89.5q18 41.5 52 72q34 30.5 81.5 48t106.5 17.5z" />
<glyph unicode="&#1030;" horiz-adv-x="296" d="M148 723q81 0 81 -115v-502q0 -115 -81 -115q-81 0 -81 115v502q0 115 81 115z" />
<glyph unicode="&#1031;" horiz-adv-x="296" d="M148 723q81 0 81 -115v-502q0 -115 -81 -115q-81 0 -81 115v502q0 115 81 115zt0 0zM39 939q30 0 51.5 -21.5q21.5 -21.5 21.5 -51.5q0 -30 -21.5 -51q-21.5 -21 -51.5 -21q-30 0 -51 21q-21 21 -21 51q0 30 21 51.5q21 21.5 51 21.5zt0 0zM256 939q30 0 51.5 -21.5q21.5 -21.5 21.5 -51.5q0 -30 -21.5 -51q-21.5 -21 -51.5 -21q-30 0 -51 21q-21 21 -21 51q0 30 21 51.5t51 21.5z" />
<glyph unicode="&#1032;" horiz-adv-x="458" d="M314 723q81 0 81 -115v-391q0 -118 -53 -178q-53 -60 -155 -60q-42 0 -76 10q-34 10 -58 26.5q-24 16.5 -37.5 38q-13.5 21.5 -13.5 44.5q0 32 20.5 52.5q20.5 20.5 54.5 20.5q15 0 28.5 -6q13.5 -6 26 -12.5q12.5 -6.5 24.5 -12.5q12 -6 24 -6q33 0 43 35q10 35 10 100v339q0 115 81 115z" />
<glyph unicode="&#1033;" horiz-adv-x="1021" d="M289 561v-101q0 -78 -13.5 -168q-13.5 -90 -59.5 -186q-29 -60 -56.5 -87.5q-27.5 -27.5 -64.5 -27.5q-35 0 -56 19q-21 19 -21 50q0 14 9 36.5q9 22.5 23 42.5q24 33 40 59.5q16 26.5 25.5 53.5q9.5 27 13 57.5q3.5 30.5 3.5 71.5v216q0 64 24.5 89q24.5 25 87.5 25h274q63 0 87.5 -25q24.5 -25 24.5 -89v-141h87q53 0 102.5 -12q49.5 -12 87.5 -39.5q38 -27.5 61 -72q23 -44.5 23 -109.5q0 -44 -17 -84.5q-17 -40.5 -49.5 -71.5q-32.5 -31 -79.5 -49q-47 -18 -107 -18h-160q-32 0 -53 4.5q-21 4.5 -33.5 16.5q-12.5 12 -18 31.5q-5.5 19.5 -5.5 49.5v459zM630 138h81q53 0 81.5 22.5q28.5 22.5 28.5 68.5q0 48 -27 68.5q-27 20.5 -86 20.5l-78 0z" />
<glyph unicode="&#1034;" horiz-adv-x="1045" d="M492 456v152q0 115 81 115q81 0 81 -115v-152h87q53 0 102.5 -12q49.5 -12 87.5 -39.5q38 -27.5 61 -72q23 -44.5 23 -109.5q0 -44 -17 -84.5q-17 -40.5 -49.5 -71.5q-32.5 -31 -79.5 -49q-47 -18 -107 -18h-160q-32 0 -53 4.5q-21 4.5 -33.5 16.5q-12.5 12 -18 31.5q-5.5 19.5 -5.5 49.5v216h-267v-212q0 -115 -81 -115q-81 0 -81 115v502q0 115 81 115q81 0 81 -115v-152zM654 138h81q53 0 81.5 22.5q28.5 22.5 28.5 68.5q0 48 -27 68.5q-27 20.5 -86 20.5l-78 0z" />
<glyph unicode="&#1035;" horiz-adv-x="760" d="M337 390q27 11 59 19q32 8 63 8q49 0 93.5 -9.5q44.5 -9.5 78.5 -36.5q34 -27 54 -74.5q20 -47.5 20 -123.5v-67q0 -58 -19.5 -86.5q-19.5 -28.5 -61.5 -28.5q-40 0 -60.5 27.5q-20.5 27.5 -20.5 87.5v55q0 37 -5.5 60.5q-5.5 23.5 -17 37q-11.5 13.5 -29 18.5q-17.5 5 -41.5 5q-33 0 -60 -7.5q-27 -7.5 -53 -23.5l0 -145q0 -115 -81 -115q-81 0 -81 115v455h-60q-115 0 -115 74q0 76 115 76h336q115 0 115 -76q0 -74 -115 -74l-114 0z" />
<glyph unicode="&#1036;" horiz-adv-x="635" d="M144 723q81 0 81 -115v-179l210 238q23 26 42.5 41q19.5 15 41.5 15q29 0 51 -22q22 -22 22 -52q0 -37 -41 -80l-179 -187l217 -236q41 -46 41 -80q0 -32 -23.5 -53.5q-23.5 -21.5 -51.5 -21.5q-26 0 -45 16q-19 16 -42 41l-243 268v-210q0 -115 -81 -115q-81 0 -81 115v502q0 115 81 115zt0 0zM418 1015q26 0 44.5 -17q18.5 -17 18.5 -43q0 -16 -7.5 -29.5q-7.5 -13.5 -18.5 -26.5l-76 -84q-28 -31 -54 -31q-24 0 -39 14.5q-15 14.5 -15 40.5q0 12 4.5 22.5q4.5 10.5 12.5 21.5l73 100q22 32 57 32z" />
<glyph unicode="&#1038;" horiz-adv-x="580" d="M101 723q31 0 49.5 -20.5q18.5 -20.5 33.5 -48.5l130 -234l111 227q17 34 35.5 55q18.5 21 53.5 21q25 0 43 -16.5q18 -16.5 18 -54.5q0 -16 -8 -35q-8 -19 -20 -41l-263 -490q-24 -46 -46 -70.5q-22 -24.5 -57 -24.5q-29 0 -49 18q-20 18 -20 46q0 31 22 65l99 159l-182 285q-17 26 -25 49.5q-8 23.5 -8 38.5q0 18 8 31.5q8 13.5 20 22q12 8.5 26.5 13q14.5 4.5 28.5 4.5zt0 0zM309 745q-30 0 -59.5 10q-29.5 10 -53 26.5q-23.5 16.5 -38 39q-14.5 22.5 -14.5 46.5q0 25 13.5 40q13.5 15 38.5 15q20 0 33 -10q13 -10 25 -22.5q12 -12.5 25.5 -22.5q13.5 -10 34.5 -10q18 0 28 10q10 10 19.5 22.5q9.5 12.5 22.5 22.5q13 10 37 10q25 0 39 -14.5q14 -14.5 14 -40.5q0 -25 -14.5 -47q-14.5 -22 -38 -38.5q-23.5 -16.5 -53 -26.5t-59.5 -10z" />
<glyph unicode="&#1039;" horiz-adv-x="749" d="M524 150v458q0 115 81 115q81 0 81 -115v-493q0 -115 -81 -115h-152v-126q0 -115 -78 -115q-39 0 -59 27.5q-20 27.5 -20 87.5v126h-152q-81 0 -81 115v493q0 115 81 115q81 0 81 -115l0 -458z" />
<glyph unicode="&#1040;" horiz-adv-x="637" d="M399 284l-81 263l-88 -263zM322 723q85 0 119 -94l180 -511q11 -31 11 -51q0 -35 -23 -55.5q-23 -20.5 -57 -20.5q-32 0 -52 19.5q-20 19.5 -33 59.5l-20 64h-263l-24 -70q-11 -34 -31.5 -53.5q-20.5 -19.5 -46.5 -19.5q-34 0 -55.5 22q-21.5 22 -21.5 56q0 12 1.5 24q1.5 12 6.5 23l185 502q20 54 49.5 79.5t74.5 25.5z" />
<glyph unicode="&#1041;" horiz-adv-x="616" d="M225 434h88q53 0 102.5 -10q49.5 -10 87.5 -35q38 -25 60.5 -67.5q22.5 -42.5 22.5 -107.5q0 -44 -17 -83q-17 -39 -49.5 -68q-32.5 -29 -79.5 -46q-47 -17 -107 -17h-160q-31 0 -52 4.5q-21 4.5 -34 16q-13 11.5 -18.5 31q-5.5 19.5 -5.5 50.5v495q0 64 24.5 89q24.5 25 87.5 25h221q57 0 86 -16q29 -16 29 -52q0 -40 -26.5 -55q-26.5 -15 -87.5 -15h-172zM225 138h81q54 0 82 21q28 21 28 60q0 80 -113 80l-78 0z" />
<glyph unicode="&#1042;" horiz-adv-x="616" d="M308 711q110 0 166 -48q56 -48 56 -129q0 -102 -88 -140q70 -17 107 -63.5q37 -46.5 37 -116.5q0 -98 -64.5 -156q-64.5 -58 -188.5 -58h-160q-32 0 -53.5 5q-21.5 5 -34 17q-12.5 12 -17.5 31.5q-5 19.5 -5 48.5v495q0 30 5 51.5q5 21.5 17.5 35.5q12.5 14 34 20.5q21.5 6.5 55.5 6.5zM225 138h80q55 0 83 21.5q28 21.5 28 59.5q0 42 -28 61q-28 19 -85 19h-78zM225 434h68q37 0 58.5 19.5q21.5 19.5 21.5 49.5q0 32 -22 51q-22 19 -60 19l-66 0z" />
<glyph unicode="&#1043;" horiz-adv-x="490" d="M357 711q115 0 115 -76q0 -74 -115 -74h-132v-455q0 -115 -81 -115q-81 0 -81 115v491q0 30 5 51.5q5 21.5 17.5 35.5q12.5 14 34 20.5q21.5 6.5 55.5 6.5z" />
<glyph unicode="&#1044;" horiz-adv-x="830" d="M175 0v-89q0 -60 -20 -87.5q-20 -27.5 -59 -27.5q-78 0 -78 115v117q0 60 28 91q28 31 69 31q45 45 59 113.5q14 68.5 14 149.5v184q0 64 24.5 89q24.5 25 87.5 25h300q63 0 87.5 -25q24.5 -25 24.5 -89v-447q18 0 36 -5.5q18 -5.5 32 -19q14 -13.5 23 -37.5q9 -24 9 -60v-117q0 -59 -18.5 -87q-18.5 -28 -59.5 -28q-38 0 -58.5 27.5q-20.5 27.5 -20.5 87.5v89zM550 561h-205v-42q0 -57 -3 -113q-3 -56 -10.5 -105q-7.5 -49 -22 -88.5q-14.5 -39.5 -36.5 -62.5l277 0z" />
<glyph unicode="&#1045;" horiz-adv-x="505" d="M225 433h114q115 0 115 -75q0 -75 -115 -75h-114v-133h137q115 0 115 -75q0 -75 -115 -75h-189q-32 0 -53.5 5q-21.5 5 -34 17q-12.5 12 -17.5 31.5q-5 19.5 -5 48.5v495q0 30 5 51.5q5 21.5 17.5 35.5q12.5 14 34 20.5q21.5 6.5 55.5 6.5h182q115 0 115 -76q0 -74 -115 -74l-132 0z" />
<glyph unicode="&#1046;" horiz-adv-x="982" d="M491 723q40 0 60.5 -27.5q20.5 -27.5 20.5 -87.5v-179l210 238q23 26 42.5 41q19.5 15 41.5 15q29 0 51 -22q22 -22 22 -52q0 -37 -41 -80l-179 -187l217 -236q41 -46 41 -80q0 -32 -23.5 -53.5q-23.5 -21.5 -51.5 -21.5q-26 0 -45 16q-19 16 -42 41l-243 268v-210q0 -115 -81 -115q-42 0 -61.5 27.5q-19.5 27.5 -19.5 87.5v210l-243 -268q-23 -25 -42 -41q-19 -16 -45 -16q-28 0 -51.5 21.5q-23.5 21.5 -23.5 53.5q0 34 41 80l217 236l-179 187q-41 43 -41 80q0 30 22 52q22 22 51 22q22 0 41.5 -15q19.5 -15 42.5 -41l210 -238v179q0 58 18.5 86.5t62.5 28.5z" />
<glyph unicode="&#1047;" horiz-adv-x="613" d="M304 732q59 0 105.5 -14q46.5 -14 79 -39.5q32.5 -25.5 50 -61.5q17.5 -36 17.5 -80q0 -45 -24.5 -84q-24.5 -39 -70.5 -62q68 -26 95 -72.5q27 -46.5 27 -109.5q0 -43 -20.5 -84q-20.5 -41 -57.5 -73.5q-37 -32.5 -87 -52.5q-50 -20 -108 -20q-71 0 -124 18q-53 18 -88.5 45q-35.5 27 -53.5 60q-18 33 -18 63q0 9 5.5 20.5q5.5 11.5 15 21.5q9.5 10 23.5 17q14 7 32 7q21 0 36 -8.5q15 -8.5 27 -21q12 -12.5 23 -27.5q11 -15 26 -27.5q15 -12.5 35 -21q20 -8.5 50 -8.5q31 0 53 11q22 11 35.5 27q13.5 16 19.5 34q6 18 6 32q0 15 -4 30q-4 15 -14.5 27q-10.5 12 -27.5 19.5q-17 7.5 -42 7.5h-59q-36 0 -52 20q-16 20 -16 50q0 35 19.5 50q19.5 15 48.5 15h36q47 0 69.5 24q22.5 24 22.5 62q0 33 -25.5 50.5q-25.5 17.5 -60.5 17.5q-31 0 -52.5 -5.5q-21.5 -5.5 -37 -14.5q-15.5 -9 -26 -20.5q-10.5 -11.5 -19.5 -23.5q-14 -19 -28.5 -28.5q-14.5 -9.5 -35.5 -9.5q-16 0 -27 6.5q-11 6.5 -18 16q-7 9.5 -10.5 22q-3.5 12.5 -3.5 24.5q0 31 19 62q19 31 53 55q34 24 80.5 39t101.5 15z" />
<glyph unicode="&#1048;" horiz-adv-x="748" d="M144 723q81 0 81 -115v-336l299 395q20 26 40.5 41q20.5 15 46.5 15q39 0 56.5 -29q17.5 -29 17.5 -83v-505q0 -115 -81 -115q-81 0 -81 115v327l-293 -387q-23 -30 -45 -42.5q-22 -12.5 -48 -12.5q-39 0 -56.5 23q-17.5 23 -17.5 74v520q0 115 81 115z" />
<glyph unicode="&#1049;" horiz-adv-x="748" d="M144 723q81 0 81 -115v-336l299 395q20 26 40.5 41q20.5 15 46.5 15q39 0 56.5 -29q17.5 -29 17.5 -83v-505q0 -115 -81 -115q-81 0 -81 115v327l-293 -387q-23 -30 -45 -42.5q-22 -12.5 -48 -12.5q-39 0 -56.5 23q-17.5 23 -17.5 74v520q0 115 81 115zt0 0zM390 745q-30 0 -59.5 10q-29.5 10 -53 26.5q-23.5 16.5 -38 39q-14.5 22.5 -14.5 46.5q0 25 13.5 40q13.5 15 38.5 15q20 0 33 -10q13 -10 25 -22.5q12 -12.5 25.5 -22.5q13.5 -10 34.5 -10q18 0 28 10q10 10 19.5 22.5q9.5 12.5 22.5 22.5q13 10 37 10q25 0 39 -14.5q14 -14.5 14 -40.5q0 -25 -14.5 -47q-14.5 -22 -38 -38.5q-23.5 -16.5 -53 -26.5t-59.5 -10z" />
<glyph unicode="&#1050;" horiz-adv-x="635" d="M144 723q81 0 81 -115v-179l210 238q23 26 42.5 41q19.5 15 41.5 15q29 0 51 -22q22 -22 22 -52q0 -37 -41 -80l-179 -187l217 -236q41 -46 41 -80q0 -32 -23.5 -53.5q-23.5 -21.5 -51.5 -21.5q-26 0 -45 16q-19 16 -42 41l-243 268v-210q0 -115 -81 -115q-81 0 -81 115v502q0 115 81 115z" />
<glyph unicode="&#1051;" horiz-adv-x="719" d="M289 561v-101q0 -78 -13.5 -168q-13.5 -90 -59.5 -186q-29 -60 -56.5 -87.5q-27.5 -27.5 -64.5 -27.5q-35 0 -56 19q-21 19 -21 50q0 14 9 36.5q9 22.5 23 42.5q24 33 40 59.5q16 26.5 25.5 53.5q9.5 27 13 57.5q3.5 30.5 3.5 71.5v216q0 64 24.5 89q24.5 25 87.5 25h300q63 0 87.5 -25q24.5 -25 24.5 -89v-491q0 -57 -19 -86q-19 -29 -62 -29q-40 0 -60.5 27.5q-20.5 27.5 -20.5 87.5l0 455z" />
<glyph unicode="&#1052;" horiz-adv-x="869" d="M221 723q89 0 113 -99l108 -425l101 426q11 47 38.5 72.5q27.5 25.5 72.5 25.5q54 0 79 -30q25 -30 35 -90l79 -489q4 -23 4 -39q0 -40 -23 -62q-23 -22 -59 -22q-70 0 -80 94l-50 425h-1l-110 -438q-4 -17 -10 -31.5q-6 -14.5 -16 -25.5q-10 -11 -25.5 -17.5q-15.5 -6.5 -38.5 -6.5q-40 0 -62 17.5q-22 17.5 -33 63.5l-104 438h-1l-56 -415q-8 -54 -27.5 -79q-19.5 -25 -57.5 -25q-35 0 -57 22q-22 22 -22 62q0 17 6 49l87 485q10 57 34 85.5t76 28.5z" />
<glyph unicode="&#1053;" horiz-adv-x="748" d="M523 437v171q0 115 81 115q81 0 81 -115v-502q0 -115 -81 -115q-81 0 -81 115v181h-298v-181q0 -115 -81 -115q-81 0 -81 115v502q0 115 81 115q81 0 81 -115l0 -171z" />
<glyph unicode="&#1054;" horiz-adv-x="758" d="M379 732q78 0 142 -27q64 -27 110 -76.5q46 -49.5 71.5 -119q25.5 -69.5 25.5 -154.5q0 -84 -25 -153.5q-25 -69.5 -71 -119q-46 -49.5 -110 -76.5q-64 -27 -143 -27q-79 0 -143.5 27q-64.5 27 -110 76.5q-45.5 49.5 -70.5 119q-25 69.5 -25 153.5q0 85 25.5 154.5q25.5 69.5 71.5 119q46 49.5 110 76.5q64 27 142 27zt0 0zM379 577q-39 0 -70.5 -15q-31.5 -15 -54.5 -44q-23 -29 -35.5 -70.5q-12.5 -41.5 -12.5 -94.5q0 -51 12.5 -91.5q12.5 -40.5 35.5 -69q23 -28.5 55 -43.5q32 -15 70 -15q38 0 70 15q32 15 55 43.5q23 28.5 35.5 69q12.5 40.5 12.5 91.5q0 53 -12.5 94.5q-12.5 41.5 -35.5 70.5q-23 29 -54.5 44t-70.5 15z" />
<glyph unicode="&#1055;" horiz-adv-x="748" d="M225 561v-455q0 -57 -19 -86q-19 -29 -62 -29q-41 0 -61 27.5q-20 27.5 -20 87.5v491q0 64 24.5 89q24.5 25 87.5 25h398q63 0 87.5 -25q24.5 -25 24.5 -89v-491q0 -57 -19 -86q-19 -29 -62 -29q-41 0 -61 27.5q-20 27.5 -20 87.5l0 455z" />
<glyph unicode="&#1056;" horiz-adv-x="612" d="M225 375h70q111 0 111 94q0 48 -27 70.5q-27 22.5 -84 22.5h-70zM321 711q61 0 109.5 -17q48.5 -17 82 -48.5q33.5 -31.5 51.5 -76.5q18 -45 18 -100q0 -112 -65 -176.5q-65 -64.5 -183 -64.5h-109v-122q0 -115 -81 -115q-81 0 -81 115v491q0 30 5 51.5q5 21.5 17.5 35.5q12.5 14 34 20.5q21.5 6.5 55.5 6.5z" />
<glyph unicode="&#1057;" horiz-adv-x="630" d="M381 732q47 0 86 -9q39 -9 67 -24q28 -15 43.5 -34.5q15.5 -19.5 15.5 -40.5q0 -29 -20.5 -52.5q-20.5 -23.5 -49.5 -23.5q-14 0 -29.5 4.5q-15.5 4.5 -33 10q-17.5 5.5 -37.5 10q-20 4.5 -42 4.5q-39 0 -71 -16q-32 -16 -55.5 -45.5q-23.5 -29.5 -36 -71.5q-12.5 -42 -12.5 -93q0 -50 13 -90q13 -40 36.5 -68.5q23.5 -28.5 56.5 -43.5q33 -15 74 -15q25 0 46.5 6q21.5 6 40 13.5q18.5 7.5 34.5 13.5q16 6 30 6q25 0 45 -21q20 -21 20 -50q0 -24 -16 -46q-16 -22 -45.5 -39q-29.5 -17 -71 -27.5q-41.5 -10.5 -91.5 -10.5q-77 0 -141 26.5q-64 26.5 -110 75.5q-46 49 -71.5 118.5q-25.5 69.5 -25.5 155.5q0 85 27.5 155q27.5 70 74.5 119q47 49 111 76t138 27z" />
<glyph unicode="&#1058;" horiz-adv-x="512" d="M397 711q115 0 115 -76q0 -74 -115 -74h-60v-455q0 -115 -81 -115q-81 0 -81 115v455h-60q-115 0 -115 74q0 76 115 76z" />
<glyph unicode="&#1059;" horiz-adv-x="580" d="M101 723q31 0 49.5 -20.5q18.5 -20.5 33.5 -48.5l130 -234l111 227q17 34 35.5 55q18.5 21 53.5 21q25 0 43 -16.5q18 -16.5 18 -54.5q0 -16 -8 -35q-8 -19 -20 -41l-263 -490q-24 -46 -46 -70.5q-22 -24.5 -57 -24.5q-29 0 -49 18q-20 18 -20 46q0 31 22 65l99 159l-182 285q-17 26 -25 49.5q-8 23.5 -8 38.5q0 18 8 31.5q8 13.5 20 22q12 8.5 26.5 13t28.5 4.5z" />
<glyph unicode="&#1060;" horiz-adv-x="914" d="M457 723q40 0 60.5 -26q20.5 -26 20.5 -72v-20h86q59 0 107 -16.5q48 -16.5 82 -48q34 -31.5 52.5 -76q18.5 -44.5 18.5 -101.5q0 -56 -19 -101q-19 -45 -52.5 -76q-33.5 -31 -78.5 -47.5q-45 -16.5 -97 -16.5h-99v-31q0 -45 -20 -72.5q-20 -27.5 -61 -27.5q-81 0 -81 100v31h-99q-118 0 -182.5 64q-64.5 64 -64.5 177q0 57 18.5 101.5q18.5 44.5 52 76q33.5 31.5 81.5 48q48 16.5 108 16.5h86v20q0 48 19 73q19 25 62 25zt0 0zM538 259h60q55 0 82.5 28q27.5 28 27.5 76q0 47 -26 75.5q-26 28.5 -84 28.5h-60zM376 467h-60q-58 0 -84 -28.5q-26 -28.5 -26 -75.5q0 -48 27.5 -76q27.5 -28 82.5 -28l60 0z" />
<glyph unicode="&#1061;" horiz-adv-x="607" d="M122 723q21 0 40.5 -16.5q19.5 -16.5 42.5 -48.5l100 -140l102 142q45 63 86 63q13 0 26 -6.5q13 -6.5 23 -16.5q10 -10 16 -23q6 -13 6 -26q0 -21 -10 -40q-10 -19 -26 -42l-131 -182l173 -244q17 -25 27 -43.5q10 -18.5 10 -38.5q0 -27 -22 -48.5q-22 -21.5 -52 -21.5q-25 0 -45.5 15q-20.5 15 -42.5 46l-144 202l-143 -201q-21 -30 -41.5 -46q-20.5 -16 -43.5 -16q-15 0 -28 6q-13 6 -23 16q-10 10 -16 23q-6 13 -6 26q0 22 10 40.5q10 18.5 26 41.5l173 241l-130 182q-16 22 -26 41q-10 19 -10 39q0 30 22 53t57 23z" />
<glyph unicode="&#1062;" horiz-adv-x="813" d="M523 150v458q0 60 20 87.5q20 27.5 61 27.5q43 0 62 -28.5q19 -28.5 19 -86.5v-458q30 0 51 -5.5q21 -5.5 34 -19.5q13 -14 19 -38q6 -24 6 -60v-116q0 -115 -78 -115q-39 0 -59 27.5q-20 27.5 -20 87.5v89h-494q-81 0 -81 115v493q0 60 20 87.5q20 27.5 61 27.5q43 0 62 -28.5q19 -28.5 19 -86.5l0 -458z" />
<glyph unicode="&#1063;" horiz-adv-x="696" d="M131 723q40 0 60.5 -27.5q20.5 -27.5 20.5 -87.5v-112q0 -37 7.5 -60.5q7.5 -23.5 21.5 -37q14 -13.5 33 -18.5q19 -5 43 -5q47 0 83 15.5q36 15.5 71 46.5l0 171q0 58 19.5 86.5q19.5 28.5 61.5 28.5q40 0 60.5 -27.5q20.5 -27.5 20.5 -87.5v-502q0 -57 -19 -86q-19 -29 -62 -29q-41 0 -61 27.5q-20 27.5 -20 87.5v181q-13 -8 -31.5 -16q-18.5 -8 -40.5 -15q-22 -7 -45.5 -11.5q-23.5 -4.5 -45.5 -4.5q-49 0 -95.5 9.5q-46.5 9.5 -82.5 36.5q-36 27 -58 74.5q-22 47.5 -22 123.5v124q0 58 19.5 86.5t61.5 28.5z" />
<glyph unicode="&#1064;" horiz-adv-x="1042" d="M440 150v458q0 60 20 87.5q20 27.5 61 27.5q43 0 62 -28.5q19 -28.5 19 -86.5v-458h215v458q0 60 20 87.5q20 27.5 61 27.5q43 0 62 -28.5q19 -28.5 19 -86.5v-493q0 -57 -19.5 -86q-19.5 -29 -61.5 -29h-754q-42 0 -61.5 29q-19.5 29 -19.5 86v493q0 60 20 87.5q20 27.5 61 27.5q43 0 62 -28.5q19 -28.5 19 -86.5l0 -458z" />
<glyph unicode="&#1065;" horiz-adv-x="1107" d="M440 150v458q0 60 20 87.5q20 27.5 61 27.5q43 0 62 -28.5q19 -28.5 19 -86.5v-458h215v458q0 60 20 87.5q20 27.5 61 27.5q43 0 62 -28.5q19 -28.5 19 -86.5v-458q30 0 51 -5.5q21 -5.5 34 -19.5q13 -14 19 -38q6 -24 6 -60v-116q0 -115 -78 -115q-39 0 -59 27.5q-20 27.5 -20 87.5v89h-788q-42 0 -61.5 29q-19.5 29 -19.5 86v493q0 60 20 87.5q20 27.5 61 27.5q43 0 62 -28.5q19 -28.5 19 -86.5l0 -458z" />
<glyph unicode="&#1066;" horiz-adv-x="733" d="M261 711q39 0 60 -27.5q21 -27.5 21 -87.5v-140h87q53 0 102.5 -12q49.5 -12 87.5 -39.5q38 -27.5 61 -72q23 -44.5 23 -109.5q0 -44 -17 -84.5q-17 -40.5 -49.5 -71.5q-32.5 -31 -79.5 -49q-47 -18 -107 -18h-160q-32 0 -53 4.5q-21 4.5 -33.5 16.5q-12.5 12 -18 31.5q-5.5 19.5 -5.5 49.5v459h-59q-68 0 -92 17.5q-24 17.5 -24 56.5q0 37 24 56.5q24 19.5 92 19.5zM342 138h81q53 0 81.5 22.5q28.5 22.5 28.5 68.5q0 48 -27 68.5q-27 20.5 -86 20.5l-78 0z" />
<glyph unicode="&#1067;" horiz-adv-x="868" d="M724 723q81 0 81 -115v-502q0 -115 -81 -115q-81 0 -81 115v502q0 115 81 115zt0 0zM144 723q40 0 60.5 -24.5q20.5 -24.5 20.5 -90.5v-152h87q53 0 102.5 -12q49.5 -12 87.5 -39.5q38 -27.5 61 -72q23 -44.5 23 -109.5q0 -44 -17 -84.5q-17 -40.5 -49.5 -71.5q-32.5 -31 -79.5 -49q-47 -18 -107 -18h-160q-32 0 -53 4.5q-21 4.5 -33.5 16.5q-12.5 12 -18 31.5q-5.5 19.5 -5.5 49.5v506q0 58 19.5 86.5q19.5 28.5 61.5 28.5zt0 0zM225 138h81q53 0 81.5 22.5q28.5 22.5 28.5 68.5q0 48 -27 68.5q-27 20.5 -86 20.5l-78 0z" />
<glyph unicode="&#1068;" horiz-adv-x="616" d="M144 723q40 0 60.5 -24.5q20.5 -24.5 20.5 -90.5v-152h87q53 0 102.5 -12q49.5 -12 87.5 -39.5q38 -27.5 61 -72q23 -44.5 23 -109.5q0 -44 -17 -84.5q-17 -40.5 -49.5 -71.5q-32.5 -31 -79.5 -49q-47 -18 -107 -18h-160q-32 0 -53 4.5q-21 4.5 -33.5 16.5q-12.5 12 -18 31.5q-5.5 19.5 -5.5 49.5v506q0 58 19.5 86.5q19.5 28.5 61.5 28.5zt0 0zM225 138h81q53 0 81.5 22.5q28.5 22.5 28.5 68.5q0 48 -27 68.5q-27 20.5 -86 20.5l-78 0z" />
<glyph unicode="&#1069;" horiz-adv-x="632" d="M252 732q76 0 140.5 -28q64.5 -28 111 -78q46.5 -50 72.5 -119.5q26 -69.5 26 -151.5q0 -85 -25 -154q-25 -69 -71 -118.5q-46 -49.5 -110 -76.5q-64 -27 -142 -27q-48 0 -89 8.5q-41 8.5 -71 24.5q-30 16 -47 38.5q-17 22.5 -17 51.5q0 29 22 50q22 21 51 21q20 0 38 -6q18 -6 35 -13.5q17 -7.5 34 -13.5q17 -6 36 -6q69 0 114 41.5q45 41.5 59 110.5l-175 0q-59 0 -86.5 18.5q-27.5 18.5 -27.5 55.5q0 40 28.5 58q28.5 18 85.5 18h172q-4 31 -19 57q-15 26 -37.5 45q-22.5 19 -50.5 29q-28 10 -58 10q-35 0 -53 -4q-18 -4 -30.5 -9.5q-12.5 -5.5 -24.5 -9.5q-12 -4 -34 -4q-28 0 -49 19q-21 19 -21 48q0 28 20.5 50q20.5 22 52 36q31.5 14 69 21.5t71.5 7.5z" />
<glyph unicode="&#1070;" horiz-adv-x="1080" d="M359 437q11 67 40.5 122q29.5 55 74 93q44.5 38 102 59q57.5 21 125.5 21q78 0 142 -27q64 -27 110 -76.5q46 -49.5 71.5 -119q25.5 -69.5 25.5 -154.5q0 -84 -25 -153.5q-25 -69.5 -71 -119q-46 -49.5 -110 -76.5q-64 -27 -143 -27q-71 0 -130 22q-59 22 -103.5 62q-44.5 40 -73 97q-28.5 57 -37.5 127l-132 0v-181q0 -115 -81 -115q-81 0 -81 115v502q0 115 81 115q81 0 81 -115v-171zM701 577q-39 0 -70.5 -15q-31.5 -15 -54.5 -44q-23 -29 -35.5 -70.5q-12.5 -41.5 -12.5 -94.5q0 -51 12.5 -91.5q12.5 -40.5 35.5 -69q23 -28.5 55 -43.5q32 -15 70 -15q38 0 70 15q32 15 55 43.5q23 28.5 35.5 69q12.5 40.5 12.5 91.5q0 53 -12.5 94.5q-12.5 41.5 -35.5 70.5q-23 29 -54.5 44t-70.5 15z" />
<glyph unicode="&#1071;" horiz-adv-x="621" d="M446 711q63 0 87.5 -25q24.5 -25 24.5 -89v-491q0 -60 -20 -87.5q-20 -27.5 -61 -27.5q-42 0 -61.5 29q-19.5 29 -19.5 86v165l-199 -227q-26 -30 -50.5 -41.5q-24.5 -11.5 -47.5 -11.5q-28 0 -48.5 21q-20.5 21 -20.5 50q0 18 12 42q12 24 40 51l136 130q-91 27 -130.5 78.5q-39.5 51.5 -39.5 135.5q0 45 15 83.5q15 38.5 46.5 67q31.5 28.5 80.5 45q49 16.5 116 16.5zM396 562h-77q-48 0 -74.5 -19.5q-26.5 -19.5 -26.5 -65.5q0 -47 23.5 -72.5q23.5 -25.5 79.5 -25.5l75 0z" />
<glyph unicode="&#1072;" horiz-adv-x="603" d="M289 402q-21 0 -40 -10q-19 -10 -32.5 -28q-13.5 -18 -21.5 -42.5q-8 -24.5 -8 -53.5q0 -30 8 -55q8 -25 21.5 -43.5q13.5 -18.5 32 -28.5q18.5 -10 40.5 -10q22 0 40.5 10.5q18.5 10.5 32.5 29q14 18.5 22 43.5q8 25 8 54q0 29 -8 53.5q-8 24.5 -22 42.5q-14 18 -33 28q-19 10 -40 10zt0 0zM396 48q-24 -29 -57.5 -45q-33.5 -16 -74.5 -16q-48 0 -91.5 20.5q-43.5 20.5 -76.5 57q-33 36.5 -52 88q-19 51.5 -19 113.5q0 60 19.5 111q19.5 51 53 88.5q33.5 37.5 78 59q44.5 21.5 94.5 21.5q41 0 71.5 -14q30.5 -14 54.5 -43q28 50 75 50q41 0 59.5 -28q18.5 -28 18.5 -86v-317q0 -115 -78 -115q-50 0 -75 55z" />
<glyph unicode="&#1073;" horiz-adv-x="612" d="M587 266q0 -61 -19.5 -112.5q-19.5 -51.5 -54.5 -88.5q-35 -37 -84 -57.5q-49 -20.5 -108 -20.5q-57 0 -106 18q-49 18 -85 53.5q-36 35.5 -56 87.5q-20 52 -20 120v97q0 55 4.5 108.5q4.5 53.5 19.5 101.5q15 48 43 90q28 42 74 74q39 27 77 42.5q38 15.5 73.5 26q35.5 10.5 68 19q32.5 8.5 59.5 22.5q25 13 49 13q27 0 46 -21q19 -21 19 -47q0 -20 -10.5 -39q-10.5 -19 -33.5 -35q-42 -27 -99 -42q-57 -15 -123 -34q-33 -9 -63.5 -21.5q-30.5 -12.5 -53.5 -33.5q-23 -21 -36.5 -54.5q-13.5 -33.5 -13.5 -85.5q15 20 33.5 38q18.5 18 41.5 31.5q23 13.5 50.5 21.5q27.5 8 61.5 8q49 0 94 -17q45 -17 78.5 -51.5q33.5 -34.5 53.5 -87q20 -52.5 20 -124.5zt0 0zM321 402q-45 0 -75 -31.5q-30 -31.5 -30 -102.5q0 -60 28.5 -98.5q28.5 -38.5 76.5 -38.5q46 0 75 37.5q29 37.5 29 99.5q0 27 -6.5 51q-6.5 24 -19 42.5q-12.5 18.5 -32 29.5t-46.5 11z" />
<glyph unicode="&#1074;" horiz-adv-x="572" d="M410 291q18 -3 41 -12q23 -9 43.5 -25q20.5 -16 34 -39.5q13.5 -23.5 13.5 -55.5q0 -40 -16 -69.5q-16 -29.5 -43 -49.5q-27 -20 -62.5 -30q-35.5 -10 -73.5 -10h-212q-41 0 -61 26.5q-20 26.5 -20 86.5v311q0 58 25.5 86.5q25.5 28.5 69.5 28.5h205q75 0 118 -31q43 -31 43 -94q0 -24 -9.5 -44q-9.5 -20 -24.5 -35.5q-15 -15.5 -34 -26.5q-19 -11 -37 -17zt0 0zM211 327h91q30 0 46.5 14.5q16.5 14.5 16.5 34.5q0 7 -2 15q-2 8 -8.5 14.5q-6.5 6.5 -18 10.5q-11.5 4 -29.5 4h-96zM211 126h98q78 0 78 58q0 26 -23 37.5q-23 11.5 -55 11.5l-98 0z" />
<glyph unicode="&#1075;" horiz-adv-x="432" d="M308 532q52 0 75.5 -18q23.5 -18 23.5 -52q0 -65 -99 -65h-97v-289q0 -59 -18.5 -87q-18.5 -28 -59.5 -28q-39 0 -59 27.5q-20 27.5 -20 87.5v286q0 72 23.5 105q23.5 33 74.5 33z" />
<glyph unicode="&#1076;" horiz-adv-x="635" d="M463 532q19 0 35 -5q16 -5 26.5 -18q10.5 -13 16.5 -35.5q6 -22.5 6 -56.5v-282q46 0 61 -24.5q15 -24.5 15 -75.5v-102q0 -59 -16.5 -87q-16.5 -28 -58.5 -28q-44 0 -59.5 27.5q-15.5 27.5 -15.5 87.5v67h-318v-67q0 -60 -17 -87.5q-17 -27.5 -59 -27.5q-40 0 -57 28q-17 28 -17 87v102q0 24 2.5 43q2.5 19 10.5 31.5q8 12.5 23 19q15 6.5 40 6.5q31 47 31 104v178q0 36 5.5 58.5q5.5 22.5 16.5 35q11 12.5 26 17q15 4.5 35 4.5zM257 397v-182q0 -9 -2.5 -21.5q-2.5 -12.5 -6.5 -24.5q-4 -12 -8.5 -21.5q-4.5 -9.5 -8.5 -12.5l159 0l0 262z" />
<glyph unicode="&#1077;" horiz-adv-x="572" d="M187 223q5 -45 36.5 -71.5q31.5 -26.5 82.5 -26.5q30 0 54.5 8q24.5 8 44.5 17.5q20 9.5 36.5 17.5q16.5 8 30.5 8q29 0 46 -17q17 -17 17 -44q0 -23 -18 -46q-18 -23 -49.5 -41q-31.5 -18 -75 -29.5q-43.5 -11.5 -94.5 -11.5q-58 0 -108 21q-50 21 -86.5 58q-36.5 37 -57.5 88.5q-21 51.5 -21 111.5q0 60 20 111.5q20 51.5 55.5 89q35.5 37.5 84 58.5q48.5 21 105.5 21q57 0 104 -20.5q47 -20.5 81 -56q34 -35.5 53 -82.5q19 -47 19 -100q0 -20 -4.5 -32.5q-4.5 -12.5 -14.5 -19.5q-10 -7 -24.5 -9.5q-14.5 -2.5 -34.5 -2.5zM394 325q-3 42 -33 67.5q-30 25.5 -70 25.5q-40 0 -68.5 -24.5q-28.5 -24.5 -36.5 -68.5z" />
<glyph unicode="&#1078;" horiz-adv-x="795" d="M396 539q80 0 80 -114v-67l134 139q41 42 82 42q29 0 47 -17.5q18 -17.5 18 -42.5q0 -19 -10.5 -39q-10.5 -20 -29.5 -37l-106 -98l147 -173q16 -19 23.5 -37q7.5 -18 7.5 -39q0 -27 -21 -45q-21 -18 -53 -18q-23 0 -43 11q-20 11 -39 36l-157 210v-142q0 -115 -80 -115q-77 0 -77 114v142l-157 -210q-19 -25 -39 -35.5q-20 -10.5 -43 -10.5q-32 0 -53 17.5q-21 17.5 -21 44.5q0 21 7.5 39q7.5 18 23.5 37l147 173l-106 98q-19 17 -29.5 37q-10.5 20 -10.5 39q0 25 19 43q19 18 47 18q21 0 40.5 -10.5q19.5 -10.5 40.5 -32.5l134 -139v67q0 115 77 115z" />
<glyph unicode="&#1079;" horiz-adv-x="533" d="M278 546q94 0 151 -34.5q57 -34.5 57 -103.5q0 -44 -27.5 -74q-27.5 -30 -64.5 -47q25 -6 45 -18q20 -12 34.5 -28.5q14.5 -16.5 22 -36q7.5 -19.5 7.5 -38.5q0 -41 -18.5 -74q-18.5 -33 -52 -56q-33.5 -23 -79.5 -36q-46 -13 -101 -13q-47 0 -88 11q-41 11 -72 29.5q-31 18.5 -49 42.5q-18 24 -18 50q0 27 16.5 44.5q16.5 17.5 42.5 17.5q29 0 43 -11.5q14 -11.5 28 -25q14 -13.5 36 -24.5q22 -11 68 -11q35 0 61 18q26 18 26 52q0 49 -71 49h-35q-32 0 -44.5 12.5q-12.5 12.5 -12.5 38.5q0 29 17 38q17 9 40 9h27q32 0 47 14q15 14 15 36q0 25 -19 35.5q-19 10.5 -51 10.5q-30 0 -52 -8q-22 -8 -38.5 -17q-16.5 -9 -30 -17q-13.5 -8 -26.5 -8q-26 0 -45.5 19.5q-19.5 19.5 -19.5 42.5q0 25 19.5 45.5q19.5 20.5 52 35q32.5 14.5 74 22.5t85.5 8z" />
<glyph unicode="&#1080;" horiz-adv-x="583" d="M132 539q38 0 58.5 -27.5q20.5 -27.5 20.5 -87.5v-172l161 241q18 27 38 36.5q20 9.5 40 9.5q38 0 58.5 -27.5q20.5 -27.5 20.5 -87.5v-316q0 -115 -79 -115q-39 0 -58.5 27.5q-19.5 27.5 -19.5 87.5v166l-182 -253q-20 -28 -58 -28q-38 0 -58 27.5q-20 27.5 -20 87.5v316q0 58 18.5 86.5t59.5 28.5z" />
<glyph unicode="&#1081;" horiz-adv-x="583" d="M132 539q38 0 58.5 -27.5q20.5 -27.5 20.5 -87.5v-172l161 241q18 27 38 36.5q20 9.5 40 9.5q38 0 58.5 -27.5q20.5 -27.5 20.5 -87.5v-316q0 -115 -79 -115q-39 0 -58.5 27.5q-19.5 27.5 -19.5 87.5v166l-182 -253q-20 -28 -58 -28q-38 0 -58 27.5q-20 27.5 -20 87.5v316q0 58 18.5 86.5q18.5 28.5 59.5 28.5zt0 0zM298 561q-26 0 -51 8.5q-25 8.5 -44.5 22.5q-19.5 14 -32 33q-12.5 19 -12.5 40q0 20 11.5 33q11.5 13 33.5 13q17 0 28 -8.5q11 -8.5 20 -19q9 -10.5 19.5 -19q10.5 -8.5 25.5 -8.5q15 0 25 8.5q10 8.5 20 19q10 10.5 22 19q12 8.5 31 8.5q20 0 32 -12q12 -12 12 -34q0 -21 -12 -40q-12 -19 -32 -33.5q-20 -14.5 -45 -22.5t-51 -8z" />
<glyph unicode="&#1082;" horiz-adv-x="525" d="M133 539q78 0 78 -115v-66l135 139q22 23 41 32.5q19 9.5 40 9.5q28 0 47 -17.5q19 -17.5 19 -42.5q0 -19 -11 -39q-11 -20 -29 -37l-106 -98l147 -173q16 -19 23.5 -37q7.5 -18 7.5 -39q0 -27 -21 -45q-21 -18 -53 -18q-23 0 -43 11q-20 11 -39 36l-158 210v-142q0 -58 -18.5 -86.5q-18.5 -28.5 -59.5 -28.5q-79 0 -79 115v316q0 115 79 115z" />
<glyph unicode="&#1083;" horiz-adv-x="559" d="M215 397v-182q0 -41 -9 -81.5q-9 -40.5 -26 -73q-17 -32.5 -42 -53q-25 -20.5 -56 -20.5q-29 0 -46.5 20q-17.5 20 -17.5 46q0 18 8 34q8 16 18 33q10 17 18 37q8 20 8 46v214q0 58 22.5 86.5q22.5 28.5 60.5 28.5h268q40 0 62 -27.5q22 -27.5 22 -87.5v-309q0 -115 -79 -115q-39 0 -58.5 27.5q-19.5 27.5 -19.5 87.5l0 289z" />
<glyph unicode="&#1084;" horiz-adv-x="809" d="M161 539q20 0 40.5 -11.5q20.5 -11.5 40.5 -45.5l167 -287l165 298q14 26 34 36q20 10 40 10q19 0 34.5 -4.5q15.5 -4.5 27.5 -17q12 -12.5 19 -35q7 -22.5 10 -58.5l21 -278q2 -17 3 -35.5q1 -18.5 1 -23.5q0 -94 -70 -94q-39 0 -60 27.5q-21 27.5 -26 87.5l-13 163l-116 -216q-14 -26 -34.5 -44q-20.5 -18 -40.5 -18q-20 0 -40.5 20.5q-20.5 20.5 -34.5 46.5l-114 211l-14 -163q-5 -61 -26 -88q-21 -27 -60 -27q-70 0 -70 93q0 5 1 22q1 17 3 37l22 279q5 67 28.5 91t61.5 24z" />
<glyph unicode="&#1085;" horiz-adv-x="585" d="M374 342v82q0 115 80 115q38 0 57.5 -27.5q19.5 -27.5 19.5 -87.5v-316q0 -115 -79 -115q-39 0 -58.5 27.5q-19.5 27.5 -19.5 87.5v108h-163v-107q0 -57 -19 -86.5q-19 -29.5 -60 -29.5q-38 0 -58 27.5q-20 27.5 -20 87.5v316q0 115 83 115q44 0 59 -29.5q15 -29.5 15 -84.5l0 -83z" />
<glyph unicode="&#1086;" horiz-adv-x="583" d="M292 546q58 0 107 -20.5q49 -20.5 84.5 -58q35.5 -37.5 55 -89q19.5 -51.5 19.5 -112.5q0 -62 -19.5 -113q-19.5 -51 -55 -88q-35.5 -37 -84.5 -57.5q-49 -20.5 -107 -20.5q-58 0 -107 20.5q-49 20.5 -84.5 57.5q-35.5 37 -55.5 88q-20 51 -20 113q0 61 20 112.5q20 51.5 55.5 89q35.5 37.5 84.5 58q49 20.5 107 20.5zt0 0zM292 402q-44 0 -74.5 -36.5q-30.5 -36.5 -30.5 -98.5q0 -63 30 -99.5q30 -36.5 75 -36.5q45 0 74.5 37.5q29.5 37.5 29.5 99.5q0 30 -8 54.5q-8 24.5 -22 42.5q-14 18 -33 27.5t-41 9.5z" />
<glyph unicode="&#1087;" horiz-adv-x="585" d="M531 108q0 -115 -78 -115q-39 0 -59 27.5q-20 27.5 -20 87.5v289h-163v-289q0 -57 -18 -86q-18 -29 -59 -29q-38 0 -59 27.5q-21 27.5 -21 87.5v309q0 34 5.5 56q5.5 22 15.5 35q10 13 25 18.5q15 5.5 34 5.5h319q18 0 32.5 -4.5q14.5 -4.5 24.5 -17q10 -12.5 15.5 -35q5.5 -22.5 5.5 -58.5l0 -309z" />
<glyph unicode="&#1088;" horiz-adv-x="603" d="M208 493q48 53 130 53q49 0 93 -20.5q44 -20.5 76.5 -57q32.5 -36.5 51.5 -87q19 -50.5 19 -111.5q0 -60 -19.5 -111.5q-19.5 -51.5 -52.5 -89.5q-33 -38 -77 -60q-44 -22 -93 -22q-70 0 -125 47l0 -135q0 -58 -18.5 -86.5q-18.5 -28.5 -59.5 -28.5q-79 0 -79 115v530q0 58 19 84q19 26 60 26q23 0 42 -10q19 -10 33 -36zt0 0zM313 402q-44 0 -73 -36.5q-29 -36.5 -29 -98.5q0 -63 28.5 -99.5q28.5 -36.5 73.5 -36.5q45 0 74 37.5q29 37.5 29 99.5q0 30 -8 54.5q-8 24.5 -22 42.5q-14 18 -32.5 27.5t-40.5 9.5z" />
<glyph unicode="&#1089;" horiz-adv-x="497" d="M296 546q80 0 128 -28q48 -28 48 -73q0 -29 -18 -48q-18 -19 -47 -19q-11 0 -23.5 3.5q-12.5 3.5 -26 8q-13.5 4.5 -29 8.5q-15.5 4 -32.5 4q-48 0 -78.5 -38q-30.5 -38 -30.5 -99q0 -62 30.5 -98q30.5 -36 84.5 -36q17 0 32.5 3.5q15.5 3.5 29 8q13.5 4.5 25 8.5q11.5 4 21.5 4q27 0 44 -20q17 -20 17 -48q0 -21 -13.5 -39q-13.5 -18 -38 -31.5q-24.5 -13.5 -58.5 -21.5q-34 -8 -75 -8q-58 0 -106 20q-48 20 -82.5 57q-34.5 37 -53.5 88q-19 51 -19 114q0 61 19 112.5q19 51.5 54.5 88.5q35.5 37 85.5 58t112 21z" />
<glyph unicode="&#1090;" horiz-adv-x="500" d="M395 532q51 0 73 -15q22 -15 22 -52q0 -33 -22 -50.5q-22 -17.5 -74 -17.5h-66v-289q0 -59 -18 -87q-18 -28 -59 -28q-39 0 -59.5 27.5q-20.5 27.5 -20.5 87.5v289h-70q-52 0 -71.5 17.5q-19.5 17.5 -19.5 50.5q0 37 20.5 52q20.5 15 68.5 15z" />
<glyph unicode="&#1091;" horiz-adv-x="500" d="M82 539q33 0 49.5 -19.5q16.5 -19.5 30.5 -56.5l89 -238l97 251q13 32 29 47.5q16 15.5 40 15.5q36 0 57 -20q21 -20 21 -55q0 -11 -3 -25q-3 -14 -10 -30l-240 -570q-13 -31 -28 -47.5q-15 -16.5 -41 -16.5q-37 0 -57.5 20.5q-20.5 20.5 -20.5 55.5q0 25 13 54l65 141l-159 371q-5 11 -7 22.5q-2 11.5 -2 21.5q0 33 22.5 55.5t54.5 22.5z" />
<glyph unicode="&#1092;" horiz-adv-x="939" d="M469 764q39 0 59 -25q20 -25 20 -90v-157q22 24 54 39q32 15 72 15q50 0 94 -21.5q44 -21.5 76.5 -59q32.5 -37.5 51 -88.5q18.5 -51 18.5 -111q0 -59 -18.5 -109.5q-18.5 -50.5 -51.5 -88.5q-33 -38 -77 -59.5q-44 -21.5 -95 -21.5q-35 0 -65 9q-30 9 -59 33l0 -134q0 -58 -18.5 -86.5q-18.5 -28.5 -60.5 -28.5q-39 0 -58.5 27q-19.5 27 -19.5 88v134q-29 -24 -59.5 -33q-30.5 -9 -65.5 -9q-51 0 -95 22q-44 22 -76.5 60q-32.5 38 -51 89q-18.5 51 -18.5 110q0 60 18.5 111q18.5 51 51 88q32.5 37 76.5 58q44 21 95 21q40 0 71.5 -15q31.5 -15 53.5 -39l0 157q0 63 18 89q18 26 60 26zt0 0zM649 402q-23 0 -41.5 -10.5q-18.5 -10.5 -31.5 -29q-13 -18.5 -20.5 -44q-7.5 -25.5 -7.5 -54.5q0 -59 26.5 -96q26.5 -37 74.5 -37q46 0 74.5 35.5q28.5 35.5 28.5 97.5q0 28 -7.5 53.5q-7.5 25.5 -21 44q-13.5 18.5 -32.5 29.5q-19 11 -42 11zt0 0zM290 402q-23 0 -42 -10.5q-19 -10.5 -32.5 -29q-13.5 -18.5 -21 -43.5q-7.5 -25 -7.5 -54q0 -63 28 -98.5q28 -35.5 74 -35.5q48 0 75 37q27 37 27 96q0 29 -7 54.5q-7 25.5 -20.5 44q-13.5 18.5 -32 29t-41.5 10.5z" />
<glyph unicode="&#1093;" horiz-adv-x="513" d="M98 539q36 0 65 -33l96 -111l88 108q14 17 31.5 26.5q17.5 9.5 32.5 9.5q33 0 57 -22.5q24 -22.5 24 -54.5q0 -30 -35 -68l-104 -111l123 -139q15 -17 26 -34q11 -17 11 -44q0 -29 -21 -51q-21 -22 -51 -22q-22 0 -38.5 10.5q-16.5 10.5 -33.5 30.5l-113 134l-112 -134q-17 -20 -32.5 -30.5q-15.5 -10.5 -35.5 -10.5q-30 0 -53 22.5q-23 22.5 -23 55.5q0 23 9 37.5q9 14.5 24 31.5l131 144l-110 112q-30 32 -30 64q0 15 6 29.5q6 14.5 16 25.5q10 11 23.5 17.5t28.5 6.5z" />
<glyph unicode="&#1094;" horiz-adv-x="622" d="M373 135v289q0 60 20 87.5q20 27.5 59 27.5q40 0 59 -31q19 -31 19 -88v-285q34 0 55.5 -20q21.5 -20 21.5 -80v-102q0 -59 -16 -89q-16 -30 -56 -30q-43 0 -60.5 27.5q-17.5 27.5 -17.5 87.5v71h-324q-79 0 -79 115v309q0 60 20.5 87.5q20.5 27.5 58.5 27.5q41 0 59.5 -29q18.5 -29 18.5 -86l0 -289z" />
<glyph unicode="&#1095;" horiz-adv-x="561" d="M110 539q77 0 77 -115v-53q0 -46 21 -64.5q21 -18.5 54 -18.5q36 0 62 17.5q26 17.5 26 48.5v70q0 58 18.5 86.5q18.5 28.5 59.5 28.5q38 0 58.5 -27.5q20.5 -27.5 20.5 -87.5v-316q0 -63 -20 -89q-20 -26 -59 -26q-39 0 -58.5 26.5q-19.5 26.5 -19.5 88.5v91q-14 -8 -32 -13q-16 -5 -37.5 -9q-21.5 -4 -50.5 -4q-39 0 -75.5 10q-36.5 10 -64 32.5q-27.5 22.5 -44 57q-16.5 34.5 -16.5 84.5v67q0 60 19.5 87.5t60.5 27.5z" />
<glyph unicode="&#1096;" horiz-adv-x="899" d="M371 135v289q0 60 19.5 87.5q19.5 27.5 58.5 27.5q79 0 79 -115v-289h160v289q0 60 19.5 87.5q19.5 27.5 58.5 27.5q79 0 79 -115v-309q0 -60 -20 -87.5q-20 -27.5 -56 -27.5h-638q-77 0 -77 115v308q0 60 19.5 88q19.5 28 57.5 28q80 0 80 -115l0 -289z" />
<glyph unicode="&#1097;" horiz-adv-x="937" d="M371 135v289q0 60 19.5 87.5q19.5 27.5 58.5 27.5q79 0 79 -115v-289h160v289q0 60 19.5 87.5q19.5 27.5 58.5 27.5q79 0 79 -115v-289q34 0 55.5 -20q21.5 -20 21.5 -80v-102q0 -59 -16 -89q-16 -30 -56 -30q-43 0 -60.5 27.5q-17.5 27.5 -17.5 87.5v71h-641q-77 0 -77 115v308q0 60 19.5 88q19.5 28 57.5 28q80 0 80 -115l0 -289z" />
<glyph unicode="&#1098;" horiz-adv-x="663" d="M239 532q38 0 58 -27.5q20 -27.5 20 -87.5v-56h84q67 0 112.5 -13q45.5 -13 73 -35.5q27.5 -22.5 39.5 -54q12 -31.5 12 -67.5q0 -42 -16.5 -77q-16.5 -35 -47 -60.5q-30.5 -25.5 -74.5 -39.5q-44 -14 -98 -14h-163q-37 0 -58 26.5q-21 26.5 -21 86.5v284h-67q-41 0 -64.5 16.5q-23.5 16.5 -23.5 48.5q0 32 22 51q22 19 73 19zM317 126h87q42 0 59.5 18q17.5 18 17.5 46q0 34 -21 46.5q-21 12.5 -56 12.5l-87 0z" />
<glyph unicode="&#1099;" horiz-adv-x="796" d="M664 539q78 0 78 -114v-317q0 -58 -18.5 -86.5q-18.5 -28.5 -59.5 -28.5q-79 0 -79 115v317q0 114 79 114zt0 0zM133 539q38 0 58 -27.5q20 -27.5 20 -87.5v-63h84q67 0 112.5 -13q45.5 -13 73 -35.5q27.5 -22.5 39.5 -54q12 -31.5 12 -67.5q0 -42 -16.5 -77q-16.5 -35 -47 -60.5q-30.5 -25.5 -74.5 -39.5q-44 -14 -98 -14h-163q-37 0 -58 26.5q-21 26.5 -21 86.5v311q0 115 79 115zt0 0zM211 126h87q42 0 59.5 18q17.5 18 17.5 46q0 34 -21 46.5q-21 12.5 -56 12.5l-87 0z" />
<glyph unicode="&#1100;" horiz-adv-x="557" d="M133 539q38 0 58 -27.5q20 -27.5 20 -87.5v-63h84q67 0 112.5 -13q45.5 -13 73 -35.5q27.5 -22.5 39.5 -54q12 -31.5 12 -67.5q0 -42 -16.5 -77q-16.5 -35 -47 -60.5q-30.5 -25.5 -74.5 -39.5q-44 -14 -98 -14h-163q-37 0 -58 26.5q-21 26.5 -21 86.5v311q0 115 79 115zt0 0zM211 126h87q42 0 59.5 18q17.5 18 17.5 46q0 34 -21 46.5q-21 12.5 -56 12.5l-87 0z" />
<glyph unicode="&#1101;" horiz-adv-x="503" d="M207 546q61 0 111 -20.5q50 -20.5 85.5 -57.5q35.5 -37 55 -88.5q19.5 -51.5 19.5 -113.5q0 -57 -19.5 -107.5q-19.5 -50.5 -54 -89q-34.5 -38.5 -82.5 -60.5q-48 -22 -106 -22q-40 0 -74 8.5q-34 8.5 -58.5 22.5q-24.5 14 -38.5 33.5q-14 19.5 -14 40.5q0 59 59 59q18 0 30 -4.5q12 -4.5 23 -10q11 -5.5 24 -10q13 -4.5 32 -4.5q38 0 70.5 25.5q32.5 25.5 46.5 68.5l-103 0q-41 0 -65 13q-24 13 -24 45q0 36 28 52q28 16 73 16h91q-15 38 -43.5 53.5q-28.5 15.5 -63.5 15.5q-25 0 -40 -4q-15 -4 -26 -9.5q-11 -5.5 -21 -9.5q-10 -4 -25 -4q-29 0 -48 17q-19 17 -19 46q0 25 16 44q16 19 41.5 31q25.5 12 57 18t62.5 6z" />
<glyph unicode="&#1102;" horiz-adv-x="835" d="M284 332q8 48 31.5 87.5q23.5 39.5 58 67.5q34.5 28 78 43.5q43.5 15.5 92.5 15.5q58 0 107 -20.5q49 -20.5 84 -57.5q35 -37 55 -88.5q20 -51.5 20 -113.5q0 -61 -19.5 -112.5q-19.5 -51.5 -54.5 -88.5q-35 -37 -84 -57.5q-49 -20.5 -108 -20.5q-48 0 -92 13.5q-44 13.5 -78.5 40.5q-34.5 27 -58 68q-23.5 41 -31.5 97l-73 0v-98q0 -115 -79 -115q-38 0 -58 27.5q-20 27.5 -20 87.5v316q0 115 83 115q43 0 58.5 -30q15.5 -30 15.5 -85v-92zM544 402q-48 0 -76 -37q-28 -37 -28 -97q0 -60 27.5 -98.5q27.5 -38.5 75.5 -38.5q46 0 75.5 37.5q29.5 37.5 29.5 99.5q0 63 -29 98.5t-75 35.5z" />
<glyph unicode="&#1103;" horiz-adv-x="572" d="M518 93q0 -100 -80 -100q-20 0 -34.5 8.5q-14.5 8.5 -24 22.5q-9.5 14 -14 32q-4.5 18 -4.5 37v114h-54l-140 -173q-18 -22 -37.5 -31.5q-19.5 -9.5 -37.5 -9.5q-25 0 -43.5 19.5q-18.5 19.5 -18.5 47.5q0 23 14 45.5q14 22.5 36 45.5l87 88q-57 15 -88.5 51q-31.5 36 -31.5 102q0 33 13.5 60.5q13.5 27.5 37 46.5q23.5 19 56 29.5q32.5 10.5 70.5 10.5h200q55 0 74.5 -29.5q19.5 -29.5 19.5 -85.5zM361 424h-85q-23 0 -37 -5q-14 -5 -21.5 -13.5q-7.5 -8.5 -10.5 -19q-3 -10.5 -3 -20.5q0 -10 3 -20.5q3 -10.5 10.5 -19.5q7.5 -9 21.5 -15q14 -6 37 -6l85 0z" />
<glyph unicode="&#1105;" horiz-adv-x="572" d="M187 223q5 -45 36.5 -71.5q31.5 -26.5 82.5 -26.5q30 0 54.5 8q24.5 8 44.5 17.5q20 9.5 36.5 17.5q16.5 8 30.5 8q29 0 46 -17q17 -17 17 -44q0 -23 -18 -46q-18 -23 -49.5 -41q-31.5 -18 -75 -29.5q-43.5 -11.5 -94.5 -11.5q-58 0 -108 21q-50 21 -86.5 58q-36.5 37 -57.5 88.5q-21 51.5 -21 111.5q0 60 20 111.5q20 51.5 55.5 89q35.5 37.5 84 58.5q48.5 21 105.5 21q57 0 104 -20.5q47 -20.5 81 -56q34 -35.5 53 -82.5q19 -47 19 -100q0 -20 -4.5 -32.5q-4.5 -12.5 -14.5 -19.5q-10 -7 -24.5 -9.5q-14.5 -2.5 -34.5 -2.5zM394 325q-3 42 -33 67.5q-30 25.5 -70 25.5q-40 0 -68.5 -24.5q-28.5 -24.5 -36.5 -68.5zM176 773q30 0 51.5 -21.5q21.5 -21.5 21.5 -51.5q0 -30 -21.5 -51q-21.5 -21 -51.5 -21q-30 0 -51 21q-21 21 -21 51q0 30 21 51.5q21 21.5 51 21.5zt0 0zM392 773q30 0 51.5 -21.5q21.5 -21.5 21.5 -51.5q0 -30 -21.5 -51q-21.5 -21 -51.5 -21q-30 0 -51 21q-21 21 -21 51q0 30 21 51.5t51 21.5z" />
<glyph unicode="&#1106;" horiz-adv-x="592" d="M133 763q78 0 78 -115v-7h164q91 0 91 -60q0 -29 -22 -44.5q-22 -15.5 -63 -15.5h-170v-115h1q26 27 59.5 36.5q33.5 9.5 74.5 9.5q93 0 142.5 -50.5q49.5 -50.5 49.5 -153.5v-197q0 -104 -16 -172q-16 -68 -48.5 -107.5q-32.5 -39.5 -80 -55.5q-47.5 -16 -110.5 -16q-27 0 -54.5 5q-27.5 5 -50 16.5q-22.5 11.5 -36.5 30q-14 18.5 -14 45.5q0 23 15 44q15 21 47 21q18 0 31.5 -4q13.5 -4 26.5 -9.5q13 -5.5 26 -9.5q13 -4 29 -4q45 0 61.5 56q16.5 56 16.5 152v156q0 63 -18 90.5q-18 27.5 -66 27.5q-45 0 -65.5 -27.5q-20.5 -27.5 -20.5 -87.5v-93q0 -58 -18.5 -87q-18.5 -29 -59.5 -29q-79 0 -79 115v413h-6q-41 0 -63 15.5q-22 15.5 -22 44.5q0 60 91 60l0 7q0 115 79 115z" />
<glyph unicode="&#1107;" horiz-adv-x="432" d="M308 532q52 0 75.5 -18q23.5 -18 23.5 -52q0 -65 -99 -65h-97v-289q0 -59 -18.5 -87q-18.5 -28 -59.5 -28q-39 0 -59 27.5q-20 27.5 -20 87.5v286q0 72 23.5 105q23.5 33 74.5 33zM301 802q26 0 43.5 -16.5q17.5 -16.5 17.5 -42.5q0 -15 -7 -28.5q-7 -13.5 -18 -25.5l-74 -81q-14 -15 -26 -23q-12 -8 -26 -8q-24 0 -38.5 14.5q-14.5 14.5 -14.5 39.5q0 11 4.5 21.5q4.5 10.5 12.5 20.5l70 97q22 32 56 32z" />
<glyph unicode="&#1108;" horiz-adv-x="503" d="M296 546q31 0 62.5 -6q31.5 -6 57 -18q25.5 -12 41.5 -31q16 -19 16 -44q0 -29 -19 -46q-19 -17 -48 -17q-15 0 -25 4q-10 4 -21 9.5q-11 5.5 -26 9.5q-15 4 -40 4q-35 0 -63.5 -15.5q-28.5 -15.5 -43.5 -53.5l110 0q45 0 73 -16q28 -16 28 -52q0 -32 -24 -45q-24 -13 -65 -13h-122q14 -43 46.5 -68.5q32.5 -25.5 70.5 -25.5q19 0 32 4.5q13 4.5 24 10q11 5.5 23 10q12 4.5 30 4.5q59 0 59 -59q0 -21 -14 -40.5q-14 -19.5 -39 -33.5q-25 -14 -58.5 -22.5q-33.5 -8.5 -73.5 -8.5q-58 0 -106 22q-48 22 -82.5 60.5q-34.5 38.5 -54 89q-19.5 50.5 -19.5 107.5q0 62 19.5 113.5q19.5 51.5 55 88.5q35.5 37 85.5 57.5t111 20.5z" />
<glyph unicode="&#1109;" horiz-adv-x="456" d="M236 546q41 0 75.5 -9q34.5 -9 59 -24q24.5 -15 38 -34q13.5 -19 13.5 -40q0 -28 -19 -47q-19 -19 -46 -19q-14 0 -29.5 6q-15.5 6 -32 13q-16.5 7 -33 13q-16.5 6 -32.5 6q-17 0 -26.5 -8q-9.5 -8 -9.5 -19q0 -11 7.5 -19q7.5 -8 21.5 -14.5q14 -6.5 34 -14q20 -7.5 45 -18.5q66 -29 97.5 -64q31.5 -35 31.5 -89q0 -38 -15.5 -70.5q-15.5 -32.5 -43 -56.5q-27.5 -24 -66.5 -37.5q-39 -13.5 -86 -13.5q-44 0 -80 8.5q-36 8.5 -61.5 23.5q-25.5 15 -39.5 35.5q-14 20.5 -14 44.5q0 30 17.5 49.5q17.5 19.5 42.5 19.5q21 0 39 -7q18 -7 35 -16q17 -9 34.5 -16q17.5 -7 38.5 -7q20 0 32 12q12 12 12 25q0 14 -20 27.5q-20 13.5 -67 30.5q-78 29 -114 70.5q-36 41.5 -36 90.5q0 35 14.5 66q14.5 31 40.5 53.5q26 22.5 62 35.5t80 13z" />
<glyph unicode="&#1110;" horiz-adv-x="275" d="M138 539q78 0 78 -114v-317q0 -58 -18.5 -86.5q-18.5 -28.5 -59.5 -28.5q-79 0 -79 115v317q0 114 79 114zt0 0zM138 764q38 0 64 -26q26 -26 26 -64q0 -19 -7 -35.5q-7 -16.5 -19 -29q-12 -12.5 -28.5 -19.5q-16.5 -7 -35.5 -7q-38 0 -64.5 26.5q-26.5 26.5 -26.5 64.5q0 38 26.5 64t64.5 26z" />
<glyph unicode="&#1111;" horiz-adv-x="275" d="M138 539q78 0 78 -114v-317q0 -58 -18.5 -86.5q-18.5 -28.5 -59.5 -28.5q-79 0 -79 115v317q0 114 79 114zt0 0zM28 782q30 0 51.5 -21.5q21.5 -21.5 21.5 -51.5q0 -30 -21.5 -51q-21.5 -21 -51.5 -21q-30 0 -51 21q-21 21 -21 51q0 30 21 51.5q21 21.5 51 21.5zt0 0zM246 782q30 0 51.5 -21.5q21.5 -21.5 21.5 -51.5q0 -30 -21.5 -51q-21.5 -21 -51.5 -21q-30 0 -51 21q-21 21 -21 51q0 30 21 51.5t51 21.5z" />
<glyph unicode="&#1112;" horiz-adv-x="275" d="M138 539q78 0 78 -114v-530q0 -58 -18.5 -86.5q-18.5 -28.5 -59.5 -28.5q-79 0 -79 115v530q0 114 79 114zt0 0zM47 674q0 38 26.5 64q26.5 26 64.5 26q38 0 64 -26q26 -26 26 -64q0 -19 -7 -35.5q-7 -16.5 -19 -29q-12 -12.5 -28.5 -19.5q-16.5 -7 -35.5 -7q-38 0 -64.5 26.5t-26.5 64.5z" />
<glyph unicode="&#1113;" horiz-adv-x="835" d="M215 397v-182q0 -41 -9 -81.5q-9 -40.5 -26 -73q-17 -32.5 -42 -53q-25 -20.5 -56 -20.5q-29 0 -46.5 20q-17.5 20 -17.5 46q0 18 8 34q8 16 18 33q10 17 18 37q8 20 8 46v214q0 58 22.5 86.5q22.5 28.5 60.5 28.5h268q40 0 62 -27.5q22 -27.5 22 -87.5v-56h68q67 0 112.5 -13q45.5 -13 73 -35.5q27.5 -22.5 39.5 -54q12 -31.5 12 -67.5q0 -42 -16.5 -77q-16.5 -35 -47 -60.5q-30.5 -25.5 -74.5 -39.5q-44 -14 -98 -14h-147q-37 0 -58 26.5q-21 26.5 -21 86.5v284zM505 126h71q42 0 59.5 18q17.5 18 17.5 46q0 34 -21 46.5q-21 12.5 -56 12.5l-71 0z" />
<glyph unicode="&#1114;" horiz-adv-x="861" d="M374 361v63q0 115 80 115q38 0 57.5 -27.5q19.5 -27.5 19.5 -87.5v-63h68q67 0 112.5 -13q45.5 -13 73 -35.5q27.5 -22.5 39.5 -54q12 -31.5 12 -67.5q0 -42 -16.5 -77q-16.5 -35 -47 -60.5q-30.5 -25.5 -74.5 -39.5q-44 -14 -98 -14h-147q-37 0 -58 26.5q-21 26.5 -21 86.5v136h-163v-140q0 -57 -19 -86.5q-19 -29.5 -60 -29.5q-38 0 -58 27.5q-20 27.5 -20 87.5v316q0 115 83 115q44 0 59 -29.5q15 -29.5 15 -84.5v-64zM531 126h71q42 0 59.5 18q17.5 18 17.5 46q0 34 -21 46.5q-21 12.5 -56 12.5l-71 0z" />
<glyph unicode="&#1115;" horiz-adv-x="592" d="M133 763q78 0 78 -115v-7h164q91 0 91 -60q0 -29 -22 -44.5q-22 -15.5 -63 -15.5h-170v-115h1q26 27 59.5 36.5q33.5 9.5 74.5 9.5q93 0 142.5 -50.5q49.5 -50.5 49.5 -153.5v-139q0 -58 -18.5 -87q-18.5 -29 -59.5 -29q-79 0 -79 115v91q0 63 -18 90.5q-18 27.5 -66 27.5q-45 0 -65.5 -27.5q-20.5 -27.5 -20.5 -87.5v-93q0 -58 -18.5 -87q-18.5 -29 -59.5 -29q-79 0 -79 115v413h-6q-41 0 -63 15.5q-22 15.5 -22 44.5q0 60 91 60l0 7q0 115 79 115z" />
<glyph unicode="&#1116;" horiz-adv-x="525" d="M133 539q78 0 78 -115v-66l135 139q22 23 41 32.5q19 9.5 40 9.5q28 0 47 -17.5q19 -17.5 19 -42.5q0 -19 -11 -39q-11 -20 -29 -37l-106 -98l147 -173q16 -19 23.5 -37q7.5 -18 7.5 -39q0 -27 -21 -45q-21 -18 -53 -18q-23 0 -43 11q-20 11 -39 36l-158 210v-142q0 -58 -18.5 -86.5q-18.5 -28.5 -59.5 -28.5q-79 0 -79 115v316q0 115 79 115zt0 0zM370 802q26 0 43.5 -16.5q17.5 -16.5 17.5 -42.5q0 -15 -7 -28.5q-7 -13.5 -18 -25.5l-74 -81q-14 -15 -26 -23q-12 -8 -26 -8q-24 0 -38.5 14.5q-14.5 14.5 -14.5 39.5q0 11 4.5 21.5q4.5 10.5 12.5 20.5l70 97q22 32 56 32z" />
<glyph unicode="&#1118;" horiz-adv-x="500" d="M82 539q33 0 49.5 -19.5q16.5 -19.5 30.5 -56.5l89 -238l97 251q13 32 29 47.5q16 15.5 40 15.5q36 0 57 -20q21 -20 21 -55q0 -11 -3 -25q-3 -14 -10 -30l-240 -570q-13 -31 -28 -47.5q-15 -16.5 -41 -16.5q-37 0 -57.5 20.5q-20.5 20.5 -20.5 55.5q0 25 13 54l65 141l-159 371q-5 11 -7 22.5q-2 11.5 -2 21.5q0 33 22.5 55.5q22.5 22.5 54.5 22.5zt0 0zM261 561q-26 0 -51 8.5q-25 8.5 -44.5 22.5q-19.5 14 -32 33q-12.5 19 -12.5 40q0 20 11.5 33q11.5 13 33.5 13q17 0 28 -8.5q11 -8.5 20 -19q9 -10.5 19.5 -19q10.5 -8.5 25.5 -8.5q15 0 25 8.5q10 8.5 20 19q10 10.5 22 19q12 8.5 31 8.5q20 0 32 -12q12 -12 12 -34q0 -21 -12 -40q-12 -19 -32 -33.5q-20 -14.5 -45 -22.5t-51 -8z" />
<glyph unicode="&#1119;" horiz-adv-x="585" d="M375 135v289q0 115 80 115q38 0 57.5 -27.5q19.5 -27.5 19.5 -87.5v-311q0 -60 -20 -86.5q-20 -26.5 -61 -26.5h-83v-67q0 -59 -16.5 -87q-16.5 -28 -58.5 -28q-44 0 -59.5 27.5q-15.5 27.5 -15.5 87.5v67h-83q-41 0 -61 26.5q-20 26.5 -20 86.5v311q0 115 83 115q44 0 59 -29.5q15 -29.5 15 -84.5l0 -290z" />
<glyph unicode="&#1168;" horiz-adv-x="490" d="M332 711v59q0 59 13.5 83.5q13.5 24.5 54.5 24.5q39 0 55.5 -27.5q16.5 -27.5 16.5 -80.5v-105q0 -51 -18 -77.5q-18 -26.5 -64 -26.5h-165v-455q0 -115 -81 -115q-81 0 -81 115v491q0 30 5 51.5q5 21.5 17.5 35.5q12.5 14 34 20.5q21.5 6.5 55.5 6.5z" />
<glyph unicode="&#1169;" horiz-adv-x="432" d="M277 532v54q0 104 65 104q65 0 65 -104v-80q0 -25 -3 -45q-3 -20 -11 -34.5q-8 -14.5 -22 -22q-14 -7.5 -37 -7.5h-123v-289q0 -59 -18.5 -87q-18.5 -28 -59.5 -28q-39 0 -59 27.5q-20 27.5 -20 87.5v286q0 72 23.5 105q23.5 33 74.5 33z" />
<glyph unicode="&#8208;" horiz-adv-x="428" d="M316 346q38 0 58 -18.5q20 -18.5 20 -50.5q0 -66 -79 -66h-203q-38 0 -58 17.5q-20 17.5 -20 49.5q0 32 20.5 50q20.5 18 58.5 18z" />
<glyph unicode="&#8209;" horiz-adv-x="428" d="M316 346q38 0 58 -18.5q20 -18.5 20 -50.5q0 -66 -79 -66h-203q-38 0 -58 17.5q-20 17.5 -20 49.5q0 32 20.5 50q20.5 18 58.5 18z" />
<glyph unicode="&#8210;" horiz-adv-x="540" d="M450 416q28 0 49 -12.5q21 -12.5 21 -38.5q0 -26 -19.5 -38.5q-19.5 -12.5 -51.5 -12.5h-358q-28 0 -49.5 12q-21.5 12 -21.5 39q0 26 21 38.5q21 12.5 50 12.5z" />
<glyph unicode="&#8211;" horiz-adv-x="540" d="M450 329q28 0 49 -12.5q21 -12.5 21 -38.5q0 -26 -19.5 -38.5q-19.5 -12.5 -51.5 -12.5h-358q-28 0 -49.5 12q-21.5 12 -21.5 39q0 26 21 38.5q21 12.5 50 12.5z" />
<glyph unicode="&#8212;" horiz-adv-x="1020" d="M940 329q28 0 49 -12.5q21 -12.5 21 -38.5q0 -26 -19.5 -38.5q-19.5 -12.5 -51.5 -12.5h-858q-28 0 -49.5 12q-21.5 12 -21.5 39q0 26 21 38.5q21 12.5 50 12.5z" />
<glyph unicode="&#8213;" horiz-adv-x="1020" d="M940 329q28 0 49 -12.5q21 -12.5 21 -38.5q0 -26 -19.5 -38.5q-19.5 -12.5 -51.5 -12.5h-858q-28 0 -49.5 12q-21.5 12 -21.5 39q0 26 21 38.5q21 12.5 50 12.5z" />
<glyph unicode="&#8216;" horiz-adv-x="250" d="M180 807q27 0 46.5 -17.5q19.5 -17.5 19.5 -44.5q0 -21 -16 -51l-79 -144q-30 -55 -70 -55q-26 0 -46 18q-20 18 -20 45q0 22 16 50l79 144q15 28 31.5 41.5t38.5 13.5z" />
<glyph unicode="&#8217;" horiz-adv-x="250" d="M180 807q27 0 46.5 -17.5q19.5 -17.5 19.5 -44.5q0 -21 -16 -51l-79 -144q-30 -55 -70 -55q-26 0 -46 18q-20 18 -20 45q0 22 16 50l79 144q15 28 31.5 41.5t38.5 13.5z" />
<glyph unicode="&#8218;" horiz-adv-x="252" d="M151 162q27 0 46.5 -17.5q19.5 -17.5 19.5 -44.5q0 -21 -16 -51l-79 -144q-30 -55 -70 -55q-26 0 -46 18q-20 18 -20 45q0 22 16 50l79 144q15 28 31.5 41.5t38.5 13.5z" />
<glyph unicode="&#8220;" horiz-adv-x="471" d="M180 807q27 0 46.5 -17.5q19.5 -17.5 19.5 -44.5q0 -21 -16 -51l-79 -144q-30 -55 -70 -55q-26 0 -46 18q-20 18 -20 45q0 22 16 50l79 144q15 28 31.5 41.5q16.5 13.5 38.5 13.5zt0 0zM401 807q27 0 46.5 -17.5q19.5 -17.5 19.5 -44.5q0 -21 -16 -51l-79 -144q-30 -55 -70 -55q-26 0 -46 18q-20 18 -20 45q0 22 16 50l79 144q15 28 31.5 41.5t38.5 13.5z" />
<glyph unicode="&#8221;" horiz-adv-x="471" d="M180 807q27 0 46.5 -17.5q19.5 -17.5 19.5 -44.5q0 -21 -16 -51l-79 -144q-30 -55 -70 -55q-26 0 -46 18q-20 18 -20 45q0 22 16 50l79 144q15 28 31.5 41.5q16.5 13.5 38.5 13.5zt0 0zM401 807q27 0 46.5 -17.5q19.5 -17.5 19.5 -44.5q0 -21 -16 -51l-79 -144q-30 -55 -70 -55q-26 0 -46 18q-20 18 -20 45q0 22 16 50l79 144q15 28 31.5 41.5t38.5 13.5z" />
<glyph unicode="&#8222;" horiz-adv-x="501" d="M151 162q27 0 46.5 -17.5q19.5 -17.5 19.5 -44.5q0 -21 -16 -51l-79 -144q-30 -55 -70 -55q-26 0 -46 18q-20 18 -20 45q0 22 16 50l79 144q15 28 31.5 41.5q16.5 13.5 38.5 13.5zt0 0zM400 162q27 0 46.5 -17.5q19.5 -17.5 19.5 -44.5q0 -21 -16 -51l-79 -144q-30 -55 -70 -55q-26 0 -46 18q-20 18 -20 45q0 22 16 50l79 144q15 28 31.5 41.5t38.5 13.5z" />
<glyph unicode="&#8224;" horiz-adv-x="537" d="M269 731q67 0 67 -99v-118h99q39 0 58 -15.5q19 -15.5 19 -41.5q0 -28 -20.5 -43q-20.5 -15 -57.5 -15h-98v-473q0 -51 -16 -75.5q-16 -24.5 -51 -24.5q-68 0 -68 100v473h-98q-38 0 -58 15.5q-20 15.5 -20 42.5q0 57 79 57h97v118q0 99 68 99z" />
<glyph unicode="&#8225;" horiz-adv-x="500" d="M403 526q38 0 58 -14.5q20 -14.5 20 -38.5q0 -53 -79 -53h-84v-280h85q38 0 58 -14.5q20 -14.5 20 -38.5q0 -53 -79 -53h-84v-108q0 -100 -68 -100q-68 0 -68 100v108h-85q-38 0 -58 14.5q-20 14.5 -20 38.5q0 53 79 53h84v280h-85q-38 0 -58 14.5q-20 14.5 -20 38.5q0 53 79 53h84v106q0 99 68 99q68 0 68 -99l0 -106z" />
<glyph unicode="&#8226;" horiz-adv-x="465" d="M50 372q0 38 14.5 71q14.5 33 39 58q24.5 25 58 39q33.5 14 71.5 14q37 0 70.5 -14q33.5 -14 58 -39q24.5 -25 39 -58q14.5 -33 14.5 -71q0 -37 -14.5 -70.5q-14.5 -33.5 -39 -58.5q-24.5 -25 -58 -39.5q-33.5 -14.5 -71.5 -14.5q-38 0 -71 14.5q-33 14.5 -58 39q-25 24.5 -39 58t-14 71.5z" />
</font>
</defs>
</svg>
